<svg width="140" height="43" viewBox="0 0 140 43" fill="none" xmlns="http://www.w3.org/2000/svg">
<g clip-path="url(#clip0)">
<path d="M68.6024 13.396L65.0932 27.2153L61.2633 13.396H59.1301L55.1857 27.2153L51.7227 13.396H49.659L54.0618 29.5155L56.2181 29.4923L60.1394 16.2009L63.9693 29.4923H66.1707L70.6661 13.396H68.6024Z" fill="#171832"/>
<path d="M72.7841 18.0866H74.7101V29.492H72.7841V18.0866ZM73.7471 15.5566C73.5711 15.5619 73.3959 15.5311 73.2323 15.466C73.0686 15.401 72.9199 15.3031 72.7954 15.1783C72.6709 15.0535 72.5731 14.9045 72.508 14.7405C72.443 14.5765 72.4121 14.4008 72.4172 14.2244C72.4128 14.053 72.4442 13.8826 72.5094 13.7241C72.5746 13.5656 72.6721 13.4225 72.7957 13.3041C72.9217 13.1821 73.0708 13.0866 73.2342 13.0235C73.3976 12.9603 73.572 12.9306 73.7471 12.9362C74.097 12.9291 74.4354 13.0614 74.6881 13.3041C74.8144 13.421 74.9144 13.5635 74.9815 13.7222C75.0485 13.8809 75.0811 14.0521 75.077 14.2244C75.0818 14.4018 75.0498 14.5782 74.9828 14.7424C74.9158 14.9067 74.8155 15.0551 74.6881 15.1783C74.5643 15.3011 74.4173 15.3977 74.2557 15.4627C74.0941 15.5277 73.9212 15.5596 73.7471 15.5566Z" fill="#171832"/>
<path d="M77.6002 12.936V29.4918H79.5262V23.5825L84.7322 29.4918H87.1859L81.4984 23.2379L86.5447 18.0864H84.1813L79.5262 22.892V12.936H77.6002Z" fill="#171832"/>
<path d="M88.5818 18.0866H90.51V29.492H88.5818V18.0866ZM89.5448 15.5566C89.3688 15.5619 89.1936 15.5311 89.0299 15.466C88.8663 15.401 88.7176 15.3031 88.5931 15.1783C88.4685 15.0535 88.3707 14.9045 88.3057 14.7405C88.2407 14.5765 88.2098 14.4008 88.2149 14.2244C88.2105 14.053 88.2419 13.8826 88.3071 13.7241C88.3722 13.5656 88.4698 13.4225 88.5934 13.3041C88.7193 13.1821 88.8685 13.0866 89.0319 13.0235C89.1953 12.9603 89.3697 12.9306 89.5448 12.9362C89.8946 12.9291 90.233 13.0614 90.4857 13.3041C90.6122 13.4209 90.7124 13.5634 90.7797 13.7221C90.8469 13.8808 90.8797 14.052 90.8758 14.2244C90.8805 14.4018 90.8482 14.5783 90.7811 14.7426C90.7139 14.9068 90.6133 15.0552 90.4857 15.1783C90.3619 15.3011 90.2149 15.3977 90.0533 15.4627C89.8917 15.5277 89.7188 15.5596 89.5448 15.5566Z" fill="#171832"/>
<path d="M96.4985 20.9834H99.2763C100.254 20.9834 100.972 20.7463 101.431 20.272C101.891 19.7977 102.12 19.1691 102.12 18.3862C102.12 17.6187 101.894 17.0052 101.443 16.5456C100.992 16.0861 100.262 15.8563 99.2531 15.8563H96.4985V20.9834ZM93.5621 29.4922V13.396H99.4557C100.74 13.396 101.799 13.6146 102.633 14.0517C103.417 14.4426 104.068 15.0586 104.502 15.8215C104.918 16.5784 105.131 17.4304 105.121 18.2945C105.129 19.2464 104.862 20.1802 104.353 20.9834C103.84 21.7965 103.041 22.3868 101.956 22.7543L105.281 29.4922H101.909L98.9291 23.1454H96.4985V29.4922H93.5621Z" fill="#171832"/>
<path d="M111.124 27.4683C111.964 27.4683 112.617 27.1925 113.084 26.6409C113.565 26.0556 113.871 25.3459 113.967 24.5937H111.467C110.687 24.5937 110.129 24.7357 109.794 25.0196C109.635 25.1435 109.508 25.302 109.42 25.483C109.332 25.6641 109.287 25.8629 109.288 26.0641C109.279 26.2651 109.321 26.4651 109.409 26.6457C109.498 26.8264 109.63 26.9819 109.794 27.0981C110.129 27.3442 110.573 27.4668 111.124 27.466V27.4683ZM110.458 29.7661C109.48 29.7661 108.677 29.6087 108.051 29.2938C107.471 29.0235 106.984 28.5875 106.651 28.0405C106.344 27.5185 106.184 26.9223 106.188 26.3159C106.176 25.819 106.282 25.3263 106.498 24.8785C106.713 24.4307 107.031 24.0407 107.427 23.7408C108.252 23.0824 109.49 22.7532 111.142 22.7532H114.036V22.4793C114.036 21.6971 113.814 21.1223 113.37 20.7548C112.904 20.3787 112.318 20.1827 111.72 20.2024C111.169 20.1894 110.627 20.3374 110.159 20.6283C109.941 20.7665 109.755 20.9497 109.613 21.1655C109.47 21.3814 109.376 21.6251 109.334 21.8805H106.467C106.528 21.0932 106.82 20.3415 107.305 19.7196C107.799 19.0974 108.442 18.6107 109.174 18.3049C109.988 17.9667 110.861 17.7989 111.742 17.8117C113.362 17.8117 114.639 18.2179 115.573 19.0303C116.506 19.8426 116.972 20.9923 116.971 22.4793V29.4923H114.468L114.194 27.6528C113.856 28.2675 113.371 28.7886 112.783 29.1696C112.179 29.5688 111.403 29.7685 110.456 29.7685" fill="#171832"/>
<path d="M124.057 29.4922C122.864 29.4922 121.908 29.2009 121.19 28.6184C120.471 28.0358 120.112 27.001 120.111 25.514V20.547H118.163V18.0868H120.111L120.458 15.0288H123.05V18.0868H126.123V20.547H123.05V25.5372C123.05 26.0896 123.165 26.4656 123.405 26.6757C123.645 26.8857 124.051 26.9855 124.632 26.9855H126.054V29.4922H124.057Z" fill="#171832"/>
<path d="M132.977 20.2022C132.293 20.1911 131.625 20.4051 131.074 20.8114C130.523 21.2176 130.171 21.8346 130.018 22.6624H135.683C135.638 21.9112 135.363 21.3136 134.858 20.8695C134.352 20.4254 133.725 20.2029 132.977 20.2022ZM132.954 29.7682C131.891 29.7885 130.841 29.5352 129.904 29.0325C129.03 28.5516 128.308 27.8342 127.821 26.9621C127.316 26.0732 127.064 25.0461 127.064 23.881C127.044 22.7849 127.3 21.7015 127.809 20.7314C128.283 19.8351 128.998 19.09 129.873 18.5809C130.752 18.068 131.788 17.8115 132.98 17.8115C134.096 17.8115 135.082 18.0564 135.939 18.5461C136.779 19.0203 137.473 19.7163 137.946 20.5584C138.431 21.4249 138.68 22.4044 138.668 23.3982C138.668 23.5676 138.668 23.7464 138.656 23.9274C138.645 24.1084 138.638 24.3034 138.622 24.5019H129.978C130.038 25.3908 130.347 26.0871 130.904 26.5908C131.458 27.0954 132.184 27.3671 132.933 27.3497C133.463 27.3689 133.987 27.2287 134.437 26.947C134.832 26.6917 135.146 26.3296 135.344 25.9026H138.325C138.11 26.6254 137.747 27.2951 137.258 27.8685C136.757 28.4624 136.131 28.9379 135.425 29.2611C134.649 29.6083 133.807 29.781 132.958 29.7671" fill="#171832"/>
<path d="M15.5776 9.18994C15.8769 9.18994 16.1694 9.27893 16.4182 9.44565C16.667 9.61236 16.8609 9.84932 16.9753 10.1265C17.0898 10.4038 17.1197 10.7088 17.0612 11.0031C17.0028 11.2973 16.8586 11.5676 16.6469 11.7797C16.4352 11.9917 16.1656 12.1361 15.872 12.1945C15.5785 12.2529 15.2743 12.2227 14.9979 12.1077C14.7215 11.9927 14.4853 11.7981 14.3193 11.5486C14.1532 11.299 14.0647 11.0056 14.0649 10.7056C14.0649 10.5064 14.104 10.3093 14.1801 10.1253C14.2561 9.94133 14.3675 9.7742 14.508 9.63345C14.6485 9.49269 14.8153 9.38108 14.9988 9.30498C15.1823 9.22888 15.379 9.18979 15.5776 9.18994Z" fill="#171832"/>
<path d="M11.3345 13.4458C11.6334 13.446 11.9256 13.5351 12.174 13.7018C12.4224 13.8685 12.616 14.1053 12.7302 14.3822C12.8445 14.6592 12.8742 14.9639 12.8158 15.2578C12.7573 15.5517 12.6133 15.8217 12.4018 16.0335C12.1904 16.2454 11.921 16.3896 11.6278 16.448C11.3346 16.5064 11.0308 16.4763 10.7546 16.3616C10.4785 16.2468 10.2425 16.0526 10.0764 15.8033C9.9104 15.5541 9.82178 15.2611 9.82178 14.9614C9.82178 14.7623 9.86091 14.5651 9.93695 14.3812C10.013 14.1972 10.1244 14.0301 10.2649 13.8893C10.4054 13.7486 10.5722 13.6369 10.7557 13.5608C10.9392 13.4847 11.1359 13.4456 11.3345 13.4458Z" fill="#171832"/>
<path d="M15.5776 13.4458C15.8765 13.446 16.1687 13.5351 16.4171 13.7018C16.6655 13.8685 16.8591 14.1053 16.9733 14.3822C17.0876 14.6592 17.1173 14.9639 17.0589 15.2578C17.0004 15.5517 16.8564 15.8217 16.6449 16.0335C16.4335 16.2454 16.1641 16.3896 15.8709 16.448C15.5778 16.5064 15.2739 16.4763 14.9977 16.3616C14.7216 16.2468 14.4856 16.0526 14.3195 15.8033C14.1535 15.5541 14.0649 15.2611 14.0649 14.9614C14.0649 14.7623 14.104 14.5651 14.1801 14.3812C14.2561 14.1972 14.3675 14.0301 14.508 13.8893C14.6485 13.7486 14.8153 13.6369 14.9988 13.5608C15.1823 13.4847 15.379 13.4456 15.5776 13.4458Z" fill="#171832"/>
<path d="M19.8208 13.4458C20.1198 13.4458 20.412 13.5347 20.6606 13.7012C20.9092 13.8678 21.1029 14.1045 21.2173 14.3814C21.3317 14.6584 21.3617 14.9631 21.3033 15.2571C21.245 15.5511 21.101 15.8212 20.8896 16.0331C20.6782 16.2451 20.4089 16.3894 20.1157 16.4479C19.8225 16.5064 19.5185 16.4764 19.2423 16.3617C18.9661 16.247 18.73 16.0527 18.564 15.8035C18.3979 15.5542 18.3092 15.2612 18.3092 14.9614C18.3092 14.5595 18.4685 14.174 18.7519 13.8897C19.0354 13.6055 19.4199 13.4458 19.8208 13.4458Z" fill="#171832"/>
<path d="M7.09038 17.7002C7.38934 17.7002 7.68159 17.7891 7.93017 17.9556C8.17875 18.1222 8.3725 18.3589 8.4869 18.6358C8.60131 18.9128 8.63125 19.2175 8.57292 19.5115C8.5146 19.8055 8.37063 20.0756 8.15923 20.2875C7.94783 20.4995 7.6785 20.6438 7.38528 20.7023C7.09206 20.7608 6.78813 20.7308 6.51192 20.6161C6.23572 20.5014 5.99964 20.3071 5.83354 20.0579C5.66745 19.8086 5.5788 19.5156 5.5788 19.2158C5.57864 19.0167 5.61764 18.8196 5.69355 18.6356C5.76946 18.4517 5.8808 18.2845 6.02119 18.1438C6.16158 18.003 6.32828 17.8914 6.51174 17.8153C6.69521 17.7391 6.89183 17.7 7.09038 17.7002Z" fill="#171832"/>
<path d="M11.3345 17.7002C11.6334 17.7004 11.9256 17.7895 12.174 17.9562C12.4224 18.1229 12.616 18.3597 12.7302 18.6366C12.8445 18.9136 12.8742 19.2183 12.8158 19.5122C12.7573 19.8061 12.6133 20.0761 12.4018 20.2879C12.1904 20.4998 11.921 20.644 11.6278 20.7024C11.3346 20.7608 11.0308 20.7307 10.7546 20.616C10.4785 20.5012 10.2425 20.307 10.0764 20.0577C9.9104 19.8085 9.82178 19.5155 9.82178 19.2158C9.82178 19.0167 9.86091 18.8195 9.93695 18.6355C10.013 18.4516 10.1244 18.2845 10.2649 18.1437C10.4054 18.0029 10.5722 17.8913 10.7557 17.8152C10.9392 17.7391 11.1359 17.7 11.3345 17.7002Z" fill="#171832"/>
<path d="M15.5776 17.7002C15.8765 17.7004 16.1687 17.7895 16.4171 17.9562C16.6655 18.1229 16.8591 18.3597 16.9733 18.6366C17.0876 18.9136 17.1173 19.2183 17.0589 19.5122C17.0004 19.8061 16.8564 20.0761 16.6449 20.2879C16.4335 20.4998 16.1641 20.644 15.8709 20.7024C15.5778 20.7608 15.2739 20.7307 14.9977 20.616C14.7216 20.5012 14.4856 20.307 14.3195 20.0577C14.1535 19.8085 14.0649 19.5155 14.0649 19.2158C14.0649 19.0167 14.104 18.8195 14.1801 18.6355C14.2561 18.4516 14.3675 18.2845 14.508 18.1437C14.6485 18.0029 14.8153 17.8913 14.9988 17.8152C15.1823 17.7391 15.379 17.7 15.5776 17.7002Z" fill="#171832"/>
<path d="M19.8208 17.7002C20.1198 17.7002 20.412 17.7891 20.6606 17.9556C20.9092 18.1222 21.1029 18.3589 21.2173 18.6358C21.3317 18.9128 21.3617 19.2175 21.3033 19.5115C21.245 19.8055 21.101 20.0756 20.8896 20.2875C20.6782 20.4995 20.4089 20.6438 20.1157 20.7023C19.8225 20.7608 19.5185 20.7308 19.2423 20.6161C18.9661 20.5014 18.73 20.3071 18.564 20.0579C18.3979 19.8086 18.3092 19.5156 18.3092 19.2158C18.3092 18.8138 18.4685 18.4283 18.7519 18.1441C19.0354 17.8599 19.4199 17.7002 19.8208 17.7002Z" fill="#171832"/>
<path d="M24.0638 17.7002C24.3628 17.7002 24.655 17.7891 24.9036 17.9556C25.1522 18.1222 25.3459 18.3589 25.4604 18.6358C25.5748 18.9128 25.6047 19.2175 25.5464 19.5115C25.4881 19.8055 25.3441 20.0756 25.1327 20.2875C24.9213 20.4995 24.6519 20.6438 24.3587 20.7023C24.0655 20.7608 23.7616 20.7308 23.4854 20.6161C23.2092 20.5014 22.9731 20.3071 22.807 20.0579C22.6409 19.8086 22.5522 19.5156 22.5522 19.2158C22.5522 18.8138 22.7115 18.4283 22.995 18.1441C23.2785 17.8599 23.6629 17.7002 24.0638 17.7002Z" fill="#171832"/>
<path d="M32.55 13.4458C32.849 13.4458 33.1412 13.5347 33.3898 13.7012C33.6384 13.8678 33.8322 14.1045 33.9466 14.3814C34.061 14.6584 34.0909 14.9631 34.0326 15.2571C33.9743 15.5511 33.8303 15.8212 33.6189 16.0331C33.4075 16.2451 33.1382 16.3894 32.8449 16.4479C32.5517 16.5064 32.2478 16.4764 31.9716 16.3617C31.6954 16.247 31.4593 16.0527 31.2932 15.8035C31.1271 15.5542 31.0385 15.2612 31.0385 14.9614C31.0388 14.5596 31.1981 14.1742 31.4815 13.8901C31.7649 13.6059 32.1492 13.4461 32.55 13.4458Z" fill="#171832"/>
<path d="M36.7769 9.20752C37.0759 9.20752 37.3681 9.29641 37.6167 9.46295C37.8653 9.62949 38.059 9.8662 38.1734 10.1431C38.2878 10.4201 38.3178 10.7248 38.2595 11.0188C38.2011 11.3128 38.0572 11.5829 37.8458 11.7949C37.6344 12.0068 37.365 12.1512 37.0718 12.2096C36.7786 12.2681 36.4747 12.2381 36.1985 12.1234C35.9222 12.0087 35.6862 11.8144 35.5201 11.5652C35.354 11.3159 35.2653 11.0229 35.2653 10.7231C35.2653 10.3212 35.4246 9.93567 35.7081 9.65144C35.9915 9.3672 36.376 9.20752 36.7769 9.20752Z" fill="#171832"/>
<path d="M41.0188 4.9541C41.3177 4.9541 41.61 5.04299 41.8586 5.20953C42.1072 5.37607 42.3009 5.61278 42.4153 5.88972C42.5297 6.16667 42.5597 6.47141 42.5013 6.76541C42.443 7.05941 42.299 7.32947 42.0876 7.54143C41.8762 7.7534 41.6069 7.89775 41.3137 7.95623C41.0205 8.01471 40.7165 7.98469 40.4403 7.86998C40.1641 7.75526 39.928 7.561 39.762 7.31176C39.5959 7.06252 39.5072 6.76949 39.5072 6.46973C39.5072 6.06776 39.6665 5.68225 39.9499 5.39802C40.2334 5.11378 40.6179 4.9541 41.0188 4.9541Z" fill="#171832"/>
<path d="M32.55 9.18994C32.8493 9.18971 33.142 9.2785 33.3909 9.44508C33.6399 9.61166 33.8339 9.84854 33.9486 10.1257C34.0632 10.4029 34.0933 10.708 34.0349 11.0024C33.9766 11.2967 33.8325 11.5671 33.6209 11.7793C33.4092 11.9915 33.1396 12.1359 32.846 12.1944C32.5525 12.2529 32.2482 12.2228 31.9718 12.1078C31.6953 11.9929 31.459 11.7983 31.2929 11.5487C31.1268 11.2991 31.0382 11.0057 31.0385 10.7056C31.0388 10.3037 31.1981 9.91837 31.4815 9.6342C31.7649 9.35003 32.1492 9.19025 32.55 9.18994Z" fill="#171832"/>
<path d="M36.7769 4.95312C37.0759 4.95312 37.3681 5.04201 37.6167 5.20855C37.8653 5.37509 38.059 5.6118 38.1734 5.88874C38.2878 6.16569 38.3178 6.47043 38.2595 6.76443C38.2011 7.05843 38.0572 7.32849 37.8458 7.54046C37.6344 7.75242 37.365 7.89677 37.0718 7.95525C36.7786 8.01373 36.4747 7.98372 36.1985 7.869C35.9222 7.75429 35.6862 7.56003 35.5201 7.31078C35.354 7.06154 35.2653 6.76851 35.2653 6.46875C35.2653 6.06678 35.4246 5.68128 35.7081 5.39704C35.9915 5.11281 36.376 4.95312 36.7769 4.95312Z" fill="#171832"/>
<path d="M41.0188 0.696289C41.3177 0.696289 41.61 0.785179 41.8586 0.951718C42.1072 1.11826 42.3009 1.35496 42.4153 1.63191C42.5297 1.90885 42.5597 2.21359 42.5013 2.5076C42.443 2.8016 42.299 3.07166 42.0876 3.28362C41.8762 3.49559 41.6069 3.63993 41.3137 3.69842C41.0205 3.7569 40.7165 3.72688 40.4403 3.61217C40.1641 3.49745 39.928 3.30319 39.762 3.05395C39.5959 2.80471 39.5072 2.51168 39.5072 2.21191C39.5072 1.80994 39.6665 1.42444 39.9499 1.14021C40.2334 0.85597 40.6179 0.696289 41.0188 0.696289Z" fill="#171832"/>
<path d="M2.84728 21.9546C3.14624 21.9546 3.43849 22.0435 3.68707 22.21C3.93565 22.3766 4.1294 22.6133 4.2438 22.8902C4.35821 23.1672 4.38815 23.4719 4.32982 23.7659C4.2715 24.0599 4.12753 24.33 3.91613 24.5419C3.70473 24.7539 3.4354 24.8982 3.14218 24.9567C2.84896 25.0152 2.54503 24.9852 2.26882 24.8705C1.99261 24.7557 1.75654 24.5615 1.59044 24.3122C1.42435 24.063 1.33569 23.77 1.33569 23.4702C1.33569 23.0682 1.49495 22.6827 1.77843 22.3985C2.0619 22.1143 2.44638 21.9546 2.84728 21.9546Z" fill="#171832"/>
<path d="M7.09038 21.9546C7.38934 21.9546 7.68159 22.0435 7.93017 22.21C8.17875 22.3766 8.3725 22.6133 8.4869 22.8902C8.60131 23.1672 8.63125 23.4719 8.57292 23.7659C8.5146 24.0599 8.37063 24.33 8.15923 24.5419C7.94783 24.7539 7.6785 24.8982 7.38528 24.9567C7.09206 25.0152 6.78813 24.9852 6.51192 24.8705C6.23572 24.7557 5.99964 24.5615 5.83354 24.3122C5.66745 24.063 5.5788 23.77 5.5788 23.4702C5.5788 23.0682 5.73805 22.6827 6.02153 22.3985C6.30501 22.1143 6.68948 21.9546 7.09038 21.9546Z" fill="#171832"/>
<path d="M11.3345 21.9546C11.6334 21.9548 11.9256 22.0439 12.174 22.2106C12.4224 22.3773 12.616 22.6141 12.7302 22.891C12.8445 23.168 12.8742 23.4727 12.8158 23.7666C12.7573 24.0605 12.6133 24.3305 12.4018 24.5423C12.1904 24.7542 11.921 24.8984 11.6278 24.9568C11.3346 25.0152 11.0308 24.9851 10.7546 24.8704C10.4785 24.7556 10.2425 24.5613 10.0764 24.3121C9.9104 24.0629 9.82178 23.7699 9.82178 23.4702C9.82178 23.2711 9.86091 23.0739 9.93695 22.8899C10.013 22.706 10.1244 22.5389 10.2649 22.3981C10.4054 22.2573 10.5722 22.1457 10.7557 22.0696C10.9392 21.9935 11.1359 21.9544 11.3345 21.9546Z" fill="#171832"/>
<path d="M15.5776 21.9546C15.8765 21.9548 16.1687 22.0439 16.4171 22.2106C16.6655 22.3773 16.8591 22.6141 16.9733 22.891C17.0876 23.168 17.1173 23.4727 17.0589 23.7666C17.0004 24.0605 16.8564 24.3305 16.6449 24.5423C16.4335 24.7542 16.1641 24.8984 15.8709 24.9568C15.5778 25.0152 15.2739 24.9851 14.9977 24.8704C14.7216 24.7556 14.4856 24.5613 14.3195 24.3121C14.1535 24.0629 14.0649 23.7699 14.0649 23.4702C14.0649 23.2711 14.104 23.0739 14.1801 22.8899C14.2561 22.706 14.3675 22.5389 14.508 22.3981C14.6485 22.2573 14.8153 22.1457 14.9988 22.0696C15.1823 21.9935 15.379 21.9544 15.5776 21.9546Z" fill="#171832"/>
<path d="M19.8208 21.9546C20.1198 21.9546 20.412 22.0435 20.6606 22.21C20.9092 22.3766 21.1029 22.6133 21.2173 22.8902C21.3317 23.1672 21.3617 23.4719 21.3033 23.7659C21.245 24.0599 21.101 24.33 20.8896 24.5419C20.6782 24.7539 20.4089 24.8982 20.1157 24.9567C19.8225 25.0152 19.5185 24.9852 19.2423 24.8705C18.9661 24.7557 18.73 24.5615 18.564 24.3122C18.3979 24.063 18.3092 23.77 18.3092 23.4702C18.3092 23.0682 18.4685 22.6827 18.7519 22.3985C19.0354 22.1143 19.4199 21.9546 19.8208 21.9546Z" fill="#171832"/>
<path d="M24.0638 21.9546C24.3628 21.9546 24.655 22.0435 24.9036 22.21C25.1522 22.3766 25.3459 22.6133 25.4604 22.8902C25.5748 23.1672 25.6047 23.4719 25.5464 23.7659C25.4881 24.0599 25.3441 24.33 25.1327 24.5419C24.9213 24.7539 24.6519 24.8982 24.3587 24.9567C24.0655 25.0152 23.7616 24.9852 23.4854 24.8705C23.2092 24.7557 22.9731 24.5615 22.807 24.3122C22.6409 24.063 22.5522 23.77 22.5522 23.4702C22.5522 23.0682 22.7115 22.6827 22.995 22.3985C23.2785 22.1143 23.6629 21.9546 24.0638 21.9546Z" fill="#171832"/>
<path d="M28.3069 21.9546C28.6059 21.9546 28.8981 22.0435 29.1467 22.21C29.3953 22.3766 29.589 22.6133 29.7035 22.8902C29.8179 23.1672 29.8478 23.4719 29.7895 23.7659C29.7311 24.0599 29.5872 24.33 29.3758 24.5419C29.1644 24.7539 28.895 24.8982 28.6018 24.9567C28.3086 25.0152 28.0047 24.9852 27.7285 24.8705C27.4523 24.7557 27.2162 24.5615 27.0501 24.3122C26.884 24.063 26.7953 23.77 26.7953 23.4702C26.7953 23.0682 26.9546 22.6827 27.2381 22.3985C27.5216 22.1143 27.906 21.9546 28.3069 21.9546Z" fill="#171832"/>
<path d="M28.3069 17.7002C28.6059 17.7002 28.8981 17.7891 29.1467 17.9556C29.3953 18.1222 29.589 18.3589 29.7035 18.6358C29.8179 18.9128 29.8478 19.2175 29.7895 19.5115C29.7311 19.8055 29.5872 20.0756 29.3758 20.2875C29.1644 20.4995 28.895 20.6438 28.6018 20.7023C28.3086 20.7608 28.0047 20.7308 27.7285 20.6161C27.4523 20.5014 27.2162 20.3071 27.0501 20.0579C26.884 19.8086 26.7953 19.5156 26.7953 19.2158C26.7953 18.8138 26.9546 18.4283 27.2381 18.1441C27.5216 17.8599 27.906 17.7002 28.3069 17.7002Z" fill="#171832"/>
<path d="M28.3069 13.4443C28.6062 13.4441 28.8989 13.5329 29.1478 13.6995C29.3968 13.8661 29.5908 14.1029 29.7055 14.3801C29.8201 14.6573 29.8502 14.9624 29.7918 15.2567C29.7335 15.5511 29.5894 15.8214 29.3778 16.0336C29.1661 16.2458 28.8965 16.3903 28.6029 16.4488C28.3094 16.5073 28.0051 16.4772 27.7287 16.3622C27.4522 16.2473 27.2159 16.0527 27.0498 15.8031C26.8837 15.5535 26.7951 15.26 26.7953 14.96C26.7953 14.558 26.9546 14.1725 27.2381 13.8883C27.5216 13.604 27.906 13.4443 28.3069 13.4443Z" fill="#171832"/>
<path d="M32.5327 9.20752C32.8316 9.20798 33.1236 9.29726 33.3719 9.46408C33.6201 9.63089 33.8135 9.86776 33.9276 10.1447C34.0416 10.4217 34.0712 10.7264 34.0126 11.0202C33.9541 11.3141 33.8099 11.5839 33.5984 11.7957C33.3869 12.0074 33.1176 12.1515 32.8244 12.2098C32.5313 12.2681 32.2275 12.238 31.9514 12.1232C31.6753 12.0084 31.4394 11.8141 31.2734 11.5649C31.1074 11.3157 31.0188 11.0228 31.0188 10.7231C31.0188 10.3212 31.1781 9.93567 31.4615 9.65144C31.745 9.3672 32.1295 9.20752 32.5304 9.20752" fill="#171832"/>
<path d="M32.55 17.7002C32.849 17.7002 33.1412 17.7891 33.3898 17.9556C33.6384 18.1222 33.8322 18.3589 33.9466 18.6358C34.061 18.9128 34.0909 19.2175 34.0326 19.5115C33.9743 19.8055 33.8303 20.0756 33.6189 20.2875C33.4075 20.4995 33.1382 20.6438 32.8449 20.7023C32.5517 20.7608 32.2478 20.7308 31.9716 20.6161C31.6954 20.5014 31.4593 20.3071 31.2932 20.0579C31.1271 19.8086 31.0385 19.5156 31.0385 19.2158C31.0388 18.8139 31.1981 18.4286 31.4815 18.1444C31.7649 17.8603 32.1492 17.7005 32.55 17.7002Z" fill="#171832"/>
<path d="M36.7769 13.4619C37.0761 13.4617 37.3687 13.5504 37.6177 13.717C37.8666 13.8835 38.0606 14.1203 38.1753 14.3974C38.29 14.6746 38.3201 14.9796 38.2619 15.2739C38.2036 15.5682 38.0597 15.8386 37.8481 16.0508C37.6366 16.2631 37.3671 16.4076 37.0736 16.4663C36.7801 16.5249 36.4759 16.4949 36.1994 16.3801C35.9229 16.2654 35.6866 16.071 35.5203 15.8215C35.3541 15.572 35.2653 15.2787 35.2653 14.9787C35.2653 14.5766 35.4245 14.191 35.708 13.9066C35.9914 13.6222 36.3759 13.4622 36.7769 13.4619Z" fill="#171832"/>
<path d="M41.0188 9.2085C41.3177 9.2085 41.61 9.29739 41.8586 9.46393C42.1072 9.63046 42.3009 9.86717 42.4153 10.1441C42.5297 10.4211 42.5597 10.7258 42.5013 11.0198C42.443 11.3138 42.299 11.5839 42.0876 11.7958C41.8762 12.0078 41.6069 12.1521 41.3137 12.2106C41.0205 12.2691 40.7165 12.2391 40.4403 12.1244C40.1641 12.0097 39.928 11.8154 39.762 11.5662C39.5959 11.3169 39.5072 11.0239 39.5072 10.7241C39.5072 10.3222 39.6665 9.93665 39.9499 9.65241C40.2334 9.36818 40.6179 9.2085 41.0188 9.2085Z" fill="#171832"/>
<path d="M2.84728 26.209C3.14624 26.209 3.43849 26.2979 3.68707 26.4644C3.93565 26.631 4.1294 26.8677 4.2438 27.1446C4.35821 27.4216 4.38815 27.7263 4.32982 28.0203C4.2715 28.3143 4.12753 28.5844 3.91613 28.7963C3.70473 29.0083 3.4354 29.1526 3.14218 29.2111C2.84896 29.2696 2.54503 29.2396 2.26882 29.1249C1.99261 29.0102 1.75654 28.8159 1.59044 28.5666C1.42435 28.3174 1.33569 28.0244 1.33569 27.7246C1.33569 27.3226 1.49495 26.9371 1.77843 26.6529C2.0619 26.3687 2.44638 26.209 2.84728 26.209Z" fill="#171832"/>
<path d="M7.09038 26.209C7.38934 26.209 7.68159 26.2979 7.93017 26.4644C8.17875 26.631 8.3725 26.8677 8.4869 27.1446C8.60131 27.4216 8.63125 27.7263 8.57292 28.0203C8.5146 28.3143 8.37063 28.5844 8.15923 28.7963C7.94783 29.0083 7.6785 29.1526 7.38528 29.2111C7.09206 29.2696 6.78813 29.2396 6.51192 29.1249C6.23572 29.0102 5.99964 28.8159 5.83354 28.5666C5.66745 28.3174 5.5788 28.0244 5.5788 27.7246C5.5788 27.3226 5.73805 26.9371 6.02153 26.6529C6.30501 26.3687 6.68948 26.209 7.09038 26.209Z" fill="#171832"/>
<path d="M11.3345 26.209C11.6334 26.2092 11.9256 26.2983 12.174 26.465C12.4224 26.6317 12.616 26.8684 12.7302 27.1454C12.8445 27.4224 12.8742 27.7271 12.8158 28.021C12.7573 28.3149 12.6133 28.5849 12.4018 28.7967C12.1904 29.0086 11.921 29.1528 11.6278 29.2112C11.3346 29.2696 11.0308 29.2395 10.7546 29.1248C10.4785 29.01 10.2425 28.8157 10.0764 28.5665C9.9104 28.3173 9.82178 28.0243 9.82178 27.7246C9.82178 27.5255 9.86091 27.3283 9.93695 27.1443C10.013 26.9604 10.1244 26.7932 10.2649 26.6525C10.4054 26.5117 10.5722 26.4001 10.7557 26.324C10.9392 26.2479 11.1359 26.2088 11.3345 26.209Z" fill="#171832"/>
<path d="M15.5776 26.209C15.8765 26.2092 16.1687 26.2983 16.4171 26.465C16.6655 26.6317 16.8591 26.8684 16.9733 27.1454C17.0876 27.4224 17.1173 27.7271 17.0589 28.021C17.0004 28.3149 16.8564 28.5849 16.6449 28.7967C16.4335 29.0086 16.1641 29.1528 15.8709 29.2112C15.5778 29.2696 15.2739 29.2395 14.9977 29.1248C14.7216 29.01 14.4856 28.8157 14.3195 28.5665C14.1535 28.3173 14.0649 28.0243 14.0649 27.7246C14.0649 27.5255 14.104 27.3283 14.1801 27.1443C14.2561 26.9604 14.3675 26.7932 14.508 26.6525C14.6485 26.5117 14.8153 26.4001 14.9988 26.324C15.1823 26.2479 15.379 26.2088 15.5776 26.209Z" fill="#171832"/>
<path d="M19.8208 26.209C20.1198 26.209 20.412 26.2979 20.6606 26.4644C20.9092 26.631 21.1029 26.8677 21.2173 27.1446C21.3317 27.4216 21.3617 27.7263 21.3033 28.0203C21.245 28.3143 21.101 28.5844 20.8896 28.7963C20.6782 29.0083 20.4089 29.1526 20.1157 29.2111C19.8225 29.2696 19.5185 29.2396 19.2423 29.1249C18.9661 29.0102 18.73 28.8159 18.564 28.5666C18.3979 28.3174 18.3092 28.0244 18.3092 27.7246C18.3092 27.3226 18.4685 26.9371 18.7519 26.6529C19.0354 26.3687 19.4199 26.209 19.8208 26.209Z" fill="#171832"/>
<path d="M24.0638 26.209C24.3628 26.209 24.655 26.2979 24.9036 26.4644C25.1522 26.631 25.3459 26.8677 25.4604 27.1446C25.5748 27.4216 25.6047 27.7263 25.5464 28.0203C25.4881 28.3143 25.3441 28.5844 25.1327 28.7963C24.9213 29.0083 24.6519 29.1526 24.3587 29.2111C24.0655 29.2696 23.7616 29.2396 23.4854 29.1249C23.2092 29.0102 22.9731 28.8159 22.807 28.5666C22.6409 28.3174 22.5522 28.0244 22.5522 27.7246C22.5522 27.3226 22.7115 26.9371 22.995 26.6529C23.2785 26.3687 23.6629 26.209 24.0638 26.209Z" fill="#171832"/>
<path d="M28.3069 26.209C28.6059 26.209 28.8981 26.2979 29.1467 26.4644C29.3953 26.631 29.589 26.8677 29.7035 27.1446C29.8179 27.4216 29.8478 27.7263 29.7895 28.0203C29.7311 28.3143 29.5872 28.5844 29.3758 28.7963C29.1644 29.0083 28.895 29.1526 28.6018 29.2111C28.3086 29.2696 28.0047 29.2396 27.7285 29.1249C27.4523 29.0102 27.2162 28.8159 27.0501 28.5666C26.884 28.3174 26.7953 28.0244 26.7953 27.7246C26.7953 27.3226 26.9546 26.9371 27.2381 26.6529C27.5216 26.3687 27.906 26.209 28.3069 26.209Z" fill="#171832"/>
<path d="M32.55 21.9546C32.849 21.9546 33.1412 22.0435 33.3898 22.21C33.6384 22.3766 33.8322 22.6133 33.9466 22.8902C34.061 23.1672 34.0909 23.4719 34.0326 23.7659C33.9743 24.0599 33.8303 24.33 33.6189 24.5419C33.4075 24.7539 33.1382 24.8982 32.8449 24.9567C32.5517 25.0152 32.2478 24.9852 31.9716 24.8705C31.6954 24.7557 31.4593 24.5615 31.2932 24.3122C31.1271 24.063 31.0385 23.77 31.0385 23.4702C31.0388 23.0683 31.1981 22.683 31.4815 22.3988C31.7649 22.1147 32.1492 21.9549 32.55 21.9546Z" fill="#171832"/>
<path d="M36.7931 17.7002C37.0921 17.7002 37.3844 17.7891 37.6329 17.9556C37.8815 18.1222 38.0753 18.3589 38.1897 18.6358C38.3041 18.9128 38.334 19.2175 38.2757 19.5115C38.2174 19.8055 38.0734 20.0756 37.862 20.2875C37.6506 20.4995 37.3813 20.6438 37.088 20.7023C36.7948 20.7608 36.4909 20.7308 36.2147 20.6161C35.9385 20.5014 35.7024 20.3071 35.5363 20.0579C35.3702 19.8086 35.2816 19.5156 35.2816 19.2158C35.2816 18.8138 35.4408 18.4283 35.7243 18.1441C36.0078 17.8599 36.3922 17.7002 36.7931 17.7002Z" fill="#171832"/>
<path d="M41.0188 13.4619C41.3177 13.4619 41.61 13.5508 41.8586 13.7173C42.1072 13.8839 42.3009 14.1206 42.4153 14.3975C42.5297 14.6745 42.5597 14.9792 42.5013 15.2732C42.443 15.5672 42.299 15.8373 42.0876 16.0492C41.8762 16.2612 41.6069 16.4056 41.3137 16.464C41.0205 16.5225 40.7165 16.4925 40.4403 16.3778C40.1641 16.2631 39.928 16.0688 39.762 15.8196C39.5959 15.5703 39.5072 15.2773 39.5072 14.9775C39.5072 14.5756 39.6665 14.1901 39.9499 13.9058C40.2334 13.6216 40.6179 13.4619 41.0188 13.4619Z" fill="#171832"/>
<path d="M2.84728 30.4634C3.14624 30.4634 3.43849 30.5523 3.68707 30.7188C3.93565 30.8853 4.1294 31.1221 4.2438 31.399C4.35821 31.6759 4.38815 31.9807 4.32982 32.2747C4.2715 32.5687 4.12753 32.8387 3.91613 33.0507C3.70473 33.2627 3.4354 33.407 3.14218 33.4655C2.84896 33.524 2.54503 33.494 2.26882 33.3793C1.99261 33.2645 1.75654 33.0703 1.59044 32.821C1.42435 32.5718 1.33569 32.2788 1.33569 31.979C1.33569 31.577 1.49495 31.1915 1.77843 30.9073C2.0619 30.6231 2.44638 30.4634 2.84728 30.4634Z" fill="#171832"/>
<path d="M7.09038 30.4634C7.38934 30.4634 7.68159 30.5523 7.93017 30.7188C8.17875 30.8853 8.3725 31.1221 8.4869 31.399C8.60131 31.6759 8.63125 31.9807 8.57292 32.2747C8.5146 32.5687 8.37063 32.8387 8.15923 33.0507C7.94783 33.2627 7.6785 33.407 7.38528 33.4655C7.09206 33.524 6.78813 33.494 6.51192 33.3793C6.23572 33.2645 5.99964 33.0703 5.83354 32.821C5.66745 32.5718 5.5788 32.2788 5.5788 31.979C5.5788 31.577 5.73805 31.1915 6.02153 30.9073C6.30501 30.6231 6.68948 30.4634 7.09038 30.4634Z" fill="#171832"/>
<path d="M11.3345 30.4634C11.6334 30.4636 11.9256 30.5527 12.174 30.7194C12.4224 30.8861 12.616 31.1228 12.7302 31.3998C12.8445 31.6768 12.8742 31.9815 12.8158 32.2754C12.7573 32.5693 12.6133 32.8393 12.4018 33.0511C12.1904 33.263 11.921 33.4072 11.6278 33.4656C11.3346 33.524 11.0308 33.4939 10.7546 33.3791C10.4785 33.2644 10.2425 33.0701 10.0764 32.8209C9.9104 32.5717 9.82178 32.2787 9.82178 31.979C9.82178 31.7799 9.86091 31.5827 9.93695 31.3987C10.013 31.2148 10.1244 31.0476 10.2649 30.9069C10.4054 30.7661 10.5722 30.6545 10.7557 30.5784C10.9392 30.5023 11.1359 30.4632 11.3345 30.4634Z" fill="#171832"/>
<path d="M19.8208 30.4634C20.1198 30.4634 20.412 30.5523 20.6606 30.7188C20.9092 30.8853 21.1029 31.1221 21.2173 31.399C21.3317 31.6759 21.3617 31.9807 21.3033 32.2747C21.245 32.5687 21.101 32.8387 20.8896 33.0507C20.6782 33.2627 20.4089 33.407 20.1157 33.4655C19.8225 33.524 19.5185 33.494 19.2423 33.3793C18.9661 33.2645 18.73 33.0703 18.564 32.821C18.3979 32.5718 18.3092 32.2788 18.3092 31.979C18.3092 31.577 18.4685 31.1915 18.7519 30.9073C19.0354 30.6231 19.4199 30.4634 19.8208 30.4634Z" fill="#171832"/>
<path d="M24.0638 30.4634C24.3628 30.4634 24.655 30.5523 24.9036 30.7188C25.1522 30.8853 25.3459 31.1221 25.4604 31.399C25.5748 31.6759 25.6047 31.9807 25.5464 32.2747C25.4881 32.5687 25.3441 32.8387 25.1327 33.0507C24.9213 33.2627 24.6519 33.407 24.3587 33.4655C24.0655 33.524 23.7616 33.494 23.4854 33.3793C23.2092 33.2645 22.9731 33.0703 22.807 32.821C22.6409 32.5718 22.5522 32.2788 22.5522 31.979C22.5522 31.577 22.7115 31.1915 22.995 30.9073C23.2785 30.6231 23.6629 30.4634 24.0638 30.4634Z" fill="#171832"/>
<path d="M28.3069 30.4634C28.6059 30.4634 28.8981 30.5523 29.1467 30.7188C29.3953 30.8853 29.589 31.1221 29.7035 31.399C29.8179 31.6759 29.8478 31.9807 29.7895 32.2747C29.7311 32.5687 29.5872 32.8387 29.3758 33.0507C29.1644 33.2627 28.895 33.407 28.6018 33.4655C28.3086 33.524 28.0047 33.494 27.7285 33.3793C27.4523 33.2645 27.2162 33.0703 27.0501 32.821C26.884 32.5718 26.7953 32.2788 26.7953 31.979C26.7953 31.577 26.9546 31.1915 27.2381 30.9073C27.5216 30.6231 27.906 30.4634 28.3069 30.4634Z" fill="#171832"/>
<path d="M32.5327 26.2275C32.8316 26.228 33.1237 26.3173 33.372 26.4842C33.6203 26.651 33.8137 26.888 33.9277 27.165C34.0417 27.4421 34.0712 27.7468 34.0126 28.0407C33.9539 28.3346 33.8096 28.6044 33.598 28.8161C33.3864 29.0278 33.117 29.1718 32.8237 29.23C32.5305 29.2881 32.2266 29.2578 31.9506 29.1429C31.6745 29.0279 31.4387 28.8335 31.2728 28.5841C31.107 28.3348 31.0186 28.0417 31.0188 27.742C31.019 27.5429 31.0582 27.3457 31.1344 27.1618C31.2106 26.9779 31.3222 26.8109 31.4628 26.6702C31.6034 26.5296 31.7702 26.4181 31.9538 26.3421C32.1374 26.2662 32.3341 26.2272 32.5327 26.2275Z" fill="#171832"/>
<path d="M36.7769 21.9717C37.0759 21.9717 37.3681 22.0606 37.6167 22.2271C37.8653 22.3936 38.059 22.6304 38.1734 22.9073C38.2878 23.1842 38.3178 23.489 38.2595 23.783C38.2011 24.077 38.0572 24.347 37.8458 24.559C37.6344 24.771 37.365 24.9153 37.0718 24.9738C36.7786 25.0323 36.4747 25.0023 36.1985 24.8876C35.9222 24.7728 35.6862 24.5786 35.5201 24.3293C35.354 24.0801 35.2653 23.7871 35.2653 23.4873C35.2653 23.0853 35.4246 22.6998 35.7081 22.4156C35.9915 22.1314 36.376 21.9717 36.7769 21.9717Z" fill="#171832"/>
<path d="M41.0188 17.7002C41.3177 17.7002 41.61 17.7891 41.8586 17.9556C42.1072 18.1222 42.3009 18.3589 42.4153 18.6358C42.5297 18.9128 42.5597 19.2175 42.5013 19.5115C42.443 19.8055 42.299 20.0756 42.0876 20.2875C41.8762 20.4995 41.6069 20.6438 41.3137 20.7023C41.0205 20.7608 40.7165 20.7308 40.4403 20.6161C40.1641 20.5014 39.928 20.3071 39.762 20.0579C39.5959 19.8086 39.5072 19.5156 39.5072 19.2158C39.5072 18.8138 39.6665 18.4283 39.9499 18.1441C40.2334 17.8599 40.6179 17.7002 41.0188 17.7002Z" fill="#171832"/>
<path d="M2.84722 34.7188C3.14623 34.7188 3.43853 34.8077 3.68713 34.9743C3.93574 35.1408 4.12948 35.3776 4.24385 35.6546C4.35823 35.9317 4.3881 36.2365 4.32968 36.5305C4.27126 36.8245 4.12718 37.0946 3.91566 37.3065C3.70415 37.5184 3.4347 37.6627 3.14141 37.721C2.84811 37.7794 2.54414 37.7492 2.26796 37.6343C1.99177 37.5194 1.75577 37.325 1.58982 37.0756C1.42386 36.8262 1.3354 36.533 1.33563 36.2332C1.33594 35.8314 1.49533 35.4462 1.77878 35.1623C2.06222 34.8783 2.44652 34.7187 2.84722 34.7188Z" fill="#171832"/>
<path d="M7.09039 34.7188C7.38941 34.7188 7.6817 34.8077 7.93031 34.9743C8.17891 35.1409 8.37266 35.3776 8.48703 35.6547C8.6014 35.9317 8.63127 36.2365 8.57285 36.5305C8.51443 36.8245 8.37035 37.0946 8.15884 37.3065C7.94732 37.5184 7.67788 37.6627 7.38458 37.721C7.09128 37.7794 6.78732 37.7492 6.51113 37.6343C6.23495 37.5194 5.99895 37.325 5.83299 37.0756C5.66704 36.8262 5.57858 36.533 5.57881 36.2332C5.57804 36.034 5.61663 35.8367 5.69233 35.6525C5.76804 35.4683 5.87937 35.301 6.0199 35.1602C6.16044 35.0194 6.32739 34.9079 6.51112 34.8321C6.69485 34.7564 6.89173 34.7178 7.09039 34.7188Z" fill="#171832"/>
<path d="M24.0638 34.7188C24.3628 34.7188 24.6551 34.8077 24.9037 34.9743C25.1523 35.1408 25.3461 35.3776 25.4605 35.6546C25.5748 35.9317 25.6047 36.2365 25.5463 36.5305C25.4879 36.8245 25.3438 37.0946 25.1323 37.3065C24.9208 37.5184 24.6513 37.6627 24.358 37.721C24.0647 37.7794 23.7608 37.7492 23.4846 37.6343C23.2084 37.5194 22.9724 37.325 22.8064 37.0756C22.6405 36.8262 22.552 36.533 22.5522 36.2332C22.5526 35.8314 22.7119 35.4462 22.9954 35.1623C23.2788 34.8783 23.6631 34.7187 24.0638 34.7188Z" fill="#171832"/>
<path d="M2.84728 38.9731C3.14624 38.9731 3.43849 39.062 3.68707 39.2286C3.93565 39.3951 4.1294 39.6318 4.2438 39.9088C4.35821 40.1857 4.38815 40.4905 4.32982 40.7845C4.2715 41.0785 4.12753 41.3485 3.91613 41.5605C3.70473 41.7724 3.4354 41.9168 3.14218 41.9753C2.84896 42.0338 2.54503 42.0037 2.26882 41.889C1.99261 41.7743 1.75654 41.5801 1.59044 41.3308C1.42435 41.0816 1.33569 40.7885 1.33569 40.4888C1.33569 40.0868 1.49495 39.7013 1.77843 39.4171C2.0619 39.1328 2.44638 38.9731 2.84728 38.9731Z" fill="#171832"/>
</g>
<defs>
<clipPath id="clip0">
<rect width="140" height="42.7044" fill="white"/>
</clipPath>
</defs>
</svg>
