<?xml version="1.0" encoding="UTF-8"?>
<svg width="357px" height="76px" viewBox="0 0 357 76" version="1.1" xmlns="http://www.w3.org/2000/svg" xmlns:xlink="http://www.w3.org/1999/xlink">
    <title>Brand / Full logo</title>
    <defs>
        <polygon id="path-1" points="0 0 70 0 70 66.9565217 0 66.9565217"></polygon>
    </defs>
    <g id="Brand-/-Full-logo" stroke="none" stroke-width="1" fill="none" fill-rule="evenodd">
        <path d="M88.225,31 C89.125,31 89.9458333,30.8916667 90.6875,30.675 C91.4291667,30.4583333 92.0625,30.15 92.5875,29.75 C93.1125,29.35 93.5166667,28.8791667 93.8,28.3375 C94.0833333,27.7958333 94.225,27.2 94.225,26.55 C94.225,25.9833333 94.1375,25.4791667 93.9625,25.0375 C93.7875,24.5958333 93.5458333,24.2166667 93.2375,23.9 C92.9291667,23.5833333 92.5708333,23.3291667 92.1625,23.1375 C91.7541667,22.9458333 91.3166667,22.8083333 90.85,22.725 C91.2,22.6416667 91.5458333,22.5083333 91.8875,22.325 C92.2291667,22.1416667 92.5375,21.9125 92.8125,21.6375 C93.0875,21.3625 93.3125,21.0333333 93.4875,20.65 C93.6625,20.2666667 93.75,19.8333333 93.75,19.35 C93.75,18.05 93.2666667,17.0416667 92.3,16.325 C91.3333333,15.6083333 90.0166667,15.25 88.35,15.25 L88.35,15.25 L82.725,15.25 L82.725,31 L88.225,31 Z M87.775,21.55 L86.15,21.55 L86.15,17.85 L87.85,17.85 C88.6166667,17.85 89.2041667,17.9958333 89.6125,18.2875 C90.0208333,18.5791667 90.225,19.0166667 90.225,19.6 C90.225,20.25 90.0041667,20.7375 89.5625,21.0625 C89.1208333,21.3875 88.525,21.55 87.775,21.55 L87.775,21.55 Z M87.775,28.4 L86.15,28.4 L86.15,24.125 L87.675,24.125 C88.525,24.125 89.2416667,24.2875 89.825,24.6125 C90.4083333,24.9375 90.7,25.475 90.7,26.225 C90.7,27.025 90.425,27.5875 89.875,27.9125 C89.325,28.2375 88.625,28.4 87.775,28.4 L87.775,28.4 Z M100.6,31.275 C101.1,31.275 101.554167,31.225 101.9625,31.125 C102.370833,31.025 102.7375,30.8958333 103.0625,30.7375 C103.3875,30.5791667 103.670833,30.4041667 103.9125,30.2125 C104.154167,30.0208333 104.366667,29.8333333 104.55,29.65 L104.55,29.65 L104.65,29.65 L105,31 L107.475,31 L107.475,19.075 L104.15,19.075 L104.15,27.525 C103.9,27.8583333 103.5625,28.15 103.1375,28.4 C102.7125,28.65 102.2,28.775 101.6,28.775 C101.066667,28.775 100.629167,28.6166667 100.2875,28.3 C99.9458333,27.9833333 99.775,27.4666667 99.775,26.75 L99.775,26.75 L99.775,19.075 L96.45,19.075 L96.45,27.025 C96.45,28.425 96.8208333,29.4833333 97.5625,30.2 C98.3041667,30.9166667 99.3166667,31.275 100.6,31.275 Z M113.65,31.275 C115.2,31.275 116.429167,30.925 117.3375,30.225 C118.245833,29.525 118.7,28.5833333 118.7,27.4 C118.7,26.5 118.433333,25.7666667 117.9,25.2 C117.366667,24.6333333 116.583333,24.2 115.55,23.9 L115.55,23.9 L114.8,23.675 C114.016667,23.4416667 113.495833,23.225 113.2375,23.025 C112.979167,22.825 112.85,22.5666667 112.85,22.25 C112.85,21.9333333 112.995833,21.6833333 113.2875,21.5 C113.579167,21.3166667 113.991667,21.225 114.525,21.225 C115.441667,21.225 116.391667,21.4583333 117.375,21.925 L117.375,21.925 L118.075,19.6 C116.958333,19.0833333 115.675,18.825 114.225,18.825 C112.758333,18.825 111.616667,19.1666667 110.8,19.85 C109.983333,20.5333333 109.575,21.4166667 109.575,22.5 C109.575,23.4166667 109.808333,24.15 110.275,24.7 C110.741667,25.25 111.475,25.6916667 112.475,26.025 L112.475,26.025 L113.25,26.25 C114.083333,26.4833333 114.65,26.6958333 114.95,26.8875 C115.25,27.0791667 115.4,27.35 115.4,27.7 C115.4,28.0333333 115.245833,28.3041667 114.9375,28.5125 C114.629167,28.7208333 114.141667,28.825 113.475,28.825 C112.925,28.825 112.383333,28.7458333 111.85,28.5875 C111.316667,28.4291667 110.808333,28.225 110.325,27.975 L110.325,27.975 L109.575,30.425 C110.708333,30.9916667 112.066667,31.275 113.65,31.275 Z M122.7,16.525 C123.266667,16.525 123.708333,16.3625 124.025,16.0375 C124.341667,15.7125 124.5,15.3083333 124.5,14.825 C124.5,14.3416667 124.3375,13.9375 124.0125,13.6125 C123.6875,13.2875 123.25,13.125 122.7,13.125 C122.133333,13.125 121.691667,13.2875 121.375,13.6125 C121.058333,13.9375 120.9,14.3416667 120.9,14.825 C120.9,15.3083333 121.058333,15.7125 121.375,16.0375 C121.691667,16.3625 122.133333,16.525 122.7,16.525 Z M124.35,31 L124.35,19.075 L121.025,19.075 L121.025,31 L124.35,31 Z M130.675,31 L130.675,22.725 C131.058333,22.3083333 131.4875,21.9791667 131.9625,21.7375 C132.4375,21.4958333 132.891667,21.375 133.325,21.375 C133.908333,21.375 134.35,21.5541667 134.65,21.9125 C134.95,22.2708333 135.1,22.7583333 135.1,23.375 L135.1,23.375 L135.1,31 L138.425,31 L138.425,23.025 C138.425,21.6583333 138.075,20.6166667 137.375,19.9 C136.675,19.1833333 135.666667,18.825 134.35,18.825 C133.55,18.825 132.820833,18.9791667 132.1625,19.2875 C131.504167,19.5958333 130.9,20.0333333 130.35,20.6 L130.35,20.6 L129.95,19.075 L127.35,19.075 L127.35,31 L130.675,31 Z M147.05,31.275 C147.983333,31.275 148.791667,31.1958333 149.475,31.0375 C150.158333,30.8791667 150.725,30.6916667 151.175,30.475 L151.175,30.475 L150.575,28.15 C150.158333,28.3333333 149.695833,28.4916667 149.1875,28.625 C148.679167,28.7583333 148.091667,28.825 147.425,28.825 C146.375,28.825 145.516667,28.5916667 144.85,28.125 C144.183333,27.6583333 143.85,26.95 143.85,26 L143.85,26 L143.85,25.9 L151.775,25.9 L151.775,24.425 C151.775,22.6583333 151.295833,21.2833333 150.3375,20.3 C149.379167,19.3166667 148.091667,18.825 146.475,18.825 C145.575,18.825 144.758333,18.9791667 144.025,19.2875 C143.291667,19.5958333 142.6625,20.025 142.1375,20.575 C141.6125,21.125 141.208333,21.7875 140.925,22.5625 C140.641667,23.3375 140.5,24.2 140.5,25.15 C140.5,26.2166667 140.675,27.1333333 141.025,27.9 C141.375,28.6666667 141.845833,29.3 142.4375,29.8 C143.029167,30.3 143.720833,30.6708333 144.5125,30.9125 C145.304167,31.1541667 146.15,31.275 147.05,31.275 Z M143.925,23.675 C144.008333,22.9083333 144.266667,22.3 144.7,21.85 C145.133333,21.4 145.683333,21.175 146.35,21.175 C146.716667,21.175 147.025,21.2416667 147.275,21.375 C147.525,21.5083333 147.733333,21.6875 147.9,21.9125 C148.066667,22.1375 148.1875,22.4 148.2625,22.7 C148.3375,23 148.375,23.3083333 148.375,23.625 L148.375,23.625 L143.925,23.675 Z M157.3,31.275 C158.85,31.275 160.079167,30.925 160.9875,30.225 C161.895833,29.525 162.35,28.5833333 162.35,27.4 C162.35,26.5 162.083333,25.7666667 161.55,25.2 C161.016667,24.6333333 160.233333,24.2 159.2,23.9 L159.2,23.9 L158.45,23.675 C157.666667,23.4416667 157.145833,23.225 156.8875,23.025 C156.629167,22.825 156.5,22.5666667 156.5,22.25 C156.5,21.9333333 156.645833,21.6833333 156.9375,21.5 C157.229167,21.3166667 157.641667,21.225 158.175,21.225 C159.091667,21.225 160.041667,21.4583333 161.025,21.925 L161.025,21.925 L161.725,19.6 C160.608333,19.0833333 159.325,18.825 157.875,18.825 C156.408333,18.825 155.266667,19.1666667 154.45,19.85 C153.633333,20.5333333 153.225,21.4166667 153.225,22.5 C153.225,23.4166667 153.458333,24.15 153.925,24.7 C154.391667,25.25 155.125,25.6916667 156.125,26.025 L156.125,26.025 L156.9,26.25 C157.733333,26.4833333 158.3,26.6958333 158.6,26.8875 C158.9,27.0791667 159.05,27.35 159.05,27.7 C159.05,28.0333333 158.895833,28.3041667 158.5875,28.5125 C158.279167,28.7208333 157.791667,28.825 157.125,28.825 C156.575,28.825 156.033333,28.7458333 155.5,28.5875 C154.966667,28.4291667 154.458333,28.225 153.975,27.975 L153.975,27.975 L153.225,30.425 C154.358333,30.9916667 155.716667,31.275 157.3,31.275 Z M167.875,31.275 C169.425,31.275 170.654167,30.925 171.5625,30.225 C172.470833,29.525 172.925,28.5833333 172.925,27.4 C172.925,26.5 172.658333,25.7666667 172.125,25.2 C171.591667,24.6333333 170.808333,24.2 169.775,23.9 L169.775,23.9 L169.025,23.675 C168.241667,23.4416667 167.720833,23.225 167.4625,23.025 C167.204167,22.825 167.075,22.5666667 167.075,22.25 C167.075,21.9333333 167.220833,21.6833333 167.5125,21.5 C167.804167,21.3166667 168.216667,21.225 168.75,21.225 C169.666667,21.225 170.616667,21.4583333 171.6,21.925 L171.6,21.925 L172.3,19.6 C171.183333,19.0833333 169.9,18.825 168.45,18.825 C166.983333,18.825 165.841667,19.1666667 165.025,19.85 C164.208333,20.5333333 163.8,21.4166667 163.8,22.5 C163.8,23.4166667 164.033333,24.15 164.5,24.7 C164.966667,25.25 165.7,25.6916667 166.7,26.025 L166.7,26.025 L167.475,26.25 C168.308333,26.4833333 168.875,26.6958333 169.175,26.8875 C169.475,27.0791667 169.625,27.35 169.625,27.7 C169.625,28.0333333 169.470833,28.3041667 169.1625,28.5125 C168.854167,28.7208333 168.366667,28.825 167.7,28.825 C167.15,28.825 166.608333,28.7458333 166.075,28.5875 C165.541667,28.4291667 165.033333,28.225 164.55,27.975 L164.55,27.975 L163.8,30.425 C164.933333,30.9916667 166.291667,31.275 167.875,31.275 Z M185.575,31.25 C186.808333,31.25 187.845833,31.0583333 188.6875,30.675 C189.529167,30.2916667 190.183333,29.8583333 190.65,29.375 L190.65,29.375 L192.25,31 L196.1,31 L192.525,27.325 C192.808333,26.9083333 193.125,26.3541667 193.475,25.6625 C193.825,24.9708333 194.125,24.275 194.375,23.575 L194.375,23.575 L191.9,22.575 C191.75,23.075 191.558333,23.5833333 191.325,24.1 C191.091667,24.6166667 190.875,25.0666667 190.675,25.45 L190.675,25.45 L186.7,21.375 C186.066667,20.7083333 185.591667,20.1291667 185.275,19.6375 C184.958333,19.1458333 184.8,18.625 184.8,18.075 C184.8,17.6083333 184.933333,17.225 185.2,16.925 C185.466667,16.625 185.875,16.475 186.425,16.475 C186.875,16.475 187.258333,16.6291667 187.575,16.9375 C187.891667,17.2458333 188.05,17.625 188.05,18.075 C188.05,18.5083333 187.945833,18.8833333 187.7375,19.2 C187.529167,19.5166667 187.266667,19.7666667 186.95,19.95 L186.95,19.95 L188.525,21.575 C189.191667,21.2416667 189.766667,20.7833333 190.25,20.2 C190.733333,19.6166667 190.975,18.9083333 190.975,18.075 C190.975,17.525 190.858333,17.0125 190.625,16.5375 C190.391667,16.0625 190.075,15.6583333 189.675,15.325 C189.275,14.9916667 188.8,14.7291667 188.25,14.5375 C187.7,14.3458333 187.108333,14.25 186.475,14.25 C185.025,14.25 183.879167,14.6041667 183.0375,15.3125 C182.195833,16.0208333 181.775,16.9833333 181.775,18.2 C181.775,18.85 181.929167,19.4666667 182.2375,20.05 C182.545833,20.6333333 182.891667,21.125 183.275,21.525 C181.975,22.125 181.041667,22.8208333 180.475,23.6125 C179.908333,24.4041667 179.625,25.3083333 179.625,26.325 C179.625,27.8416667 180.15,29.0416667 181.2,29.925 C182.25,30.8083333 183.708333,31.25 185.575,31.25 Z M185.975,28.8 C185.025,28.8 184.258333,28.5833333 183.675,28.15 C183.091667,27.7166667 182.8,27.0666667 182.8,26.2 C182.8,25.45 182.995833,24.8458333 183.3875,24.3875 C183.779167,23.9291667 184.241667,23.575 184.775,23.325 L184.775,23.325 L188.925,27.6 C188.675,27.9 188.295833,28.175 187.7875,28.425 C187.279167,28.675 186.675,28.8 185.975,28.8 Z M206.275,31 L206.275,24.2 L212.25,24.2 L212.25,31 L215.675,31 L215.675,15.25 L212.25,15.25 L212.25,21.5 L206.275,21.5 L206.275,15.25 L202.85,15.25 L202.85,31 L206.275,31 Z M222.775,31.275 C223.275,31.275 223.729167,31.225 224.1375,31.125 C224.545833,31.025 224.9125,30.8958333 225.2375,30.7375 C225.5625,30.5791667 225.845833,30.4041667 226.0875,30.2125 C226.329167,30.0208333 226.541667,29.8333333 226.725,29.65 L226.725,29.65 L226.825,29.65 L227.175,31 L229.65,31 L229.65,19.075 L226.325,19.075 L226.325,27.525 C226.075,27.8583333 225.7375,28.15 225.3125,28.4 C224.8875,28.65 224.375,28.775 223.775,28.775 C223.241667,28.775 222.804167,28.6166667 222.4625,28.3 C222.120833,27.9833333 221.95,27.4666667 221.95,26.75 L221.95,26.75 L221.95,19.075 L218.625,19.075 L218.625,27.025 C218.625,28.425 218.995833,29.4833333 219.7375,30.2 C220.479167,30.9166667 221.491667,31.275 222.775,31.275 Z M235.675,31 L235.675,22.725 C236.008333,22.3083333 236.404167,21.9791667 236.8625,21.7375 C237.320833,21.4958333 237.775,21.375 238.225,21.375 C238.758333,21.375 239.1625,21.5375 239.4375,21.8625 C239.7125,22.1875 239.85,22.6333333 239.85,23.2 L239.85,23.2 L239.85,31 L243.175,31 L243.175,22.625 C243.508333,22.225 243.904167,21.9166667 244.3625,21.7 C244.820833,21.4833333 245.275,21.375 245.725,21.375 C246.258333,21.375 246.6625,21.5375 246.9375,21.8625 C247.2125,22.1875 247.35,22.6333333 247.35,23.2 L247.35,23.2 L247.35,31 L250.675,31 L250.675,22.825 C250.675,21.525 250.3375,20.5333333 249.6625,19.85 C248.9875,19.1666667 248.016667,18.825 246.75,18.825 C245.966667,18.825 245.233333,18.9875 244.55,19.3125 C243.866667,19.6375 243.258333,20.0916667 242.725,20.675 C242.108333,19.4416667 240.95,18.825 239.25,18.825 C238.45,18.825 237.733333,18.9833333 237.1,19.3 C236.466667,19.6166667 235.883333,20.05 235.35,20.6 L235.35,20.6 L234.95,19.075 L232.35,19.075 L232.35,31 L235.675,31 Z M256.725,31.275 C257.508333,31.275 258.195833,31.1416667 258.7875,30.875 C259.379167,30.6083333 259.866667,30.2416667 260.25,29.775 L260.25,29.775 L260.35,29.775 L260.65,31 L263.225,31 L263.225,23.25 C263.225,22.4666667 263.1125,21.7958333 262.8875,21.2375 C262.6625,20.6791667 262.3375,20.2208333 261.9125,19.8625 C261.4875,19.5041667 260.979167,19.2416667 260.3875,19.075 C259.795833,18.9083333 259.141667,18.825 258.425,18.825 C257.525,18.825 256.675,18.9375 255.875,19.1625 C255.075,19.3875 254.316667,19.7083333 253.6,20.125 L253.6,20.125 L254.75,22.325 C255.366667,21.9916667 255.929167,21.75 256.4375,21.6 C256.945833,21.45 257.441667,21.375 257.925,21.375 C258.541667,21.375 259.020833,21.5041667 259.3625,21.7625 C259.704167,22.0208333 259.875,22.425 259.875,22.975 L259.875,22.975 L259.875,23.7 L258.375,23.7 C257.575,23.7 256.829167,23.775 256.1375,23.925 C255.445833,24.075 254.841667,24.3083333 254.325,24.625 C253.808333,24.9416667 253.404167,25.3458333 253.1125,25.8375 C252.820833,26.3291667 252.675,26.9166667 252.675,27.6 C252.675,28.1166667 252.7625,28.6 252.9375,29.05 C253.1125,29.5 253.375,29.8875 253.725,30.2125 C254.075,30.5375 254.5,30.7958333 255,30.9875 C255.5,31.1791667 256.075,31.275 256.725,31.275 Z M257.775,28.9 C257.341667,28.9 256.954167,28.7958333 256.6125,28.5875 C256.270833,28.3791667 256.1,27.9916667 256.1,27.425 C256.1,26.9916667 256.3,26.6208333 256.7,26.3125 C257.1,26.0041667 257.808333,25.8333333 258.825,25.8 L258.825,25.8 L259.9,25.775 L259.9,27.65 C259.7,27.9833333 259.404167,28.275 259.0125,28.525 C258.620833,28.775 258.208333,28.9 257.775,28.9 Z M269.075,31 L269.075,22.725 C269.458333,22.3083333 269.8875,21.9791667 270.3625,21.7375 C270.8375,21.4958333 271.291667,21.375 271.725,21.375 C272.308333,21.375 272.75,21.5541667 273.05,21.9125 C273.35,22.2708333 273.5,22.7583333 273.5,23.375 L273.5,23.375 L273.5,31 L276.825,31 L276.825,23.025 C276.825,21.6583333 276.475,20.6166667 275.775,19.9 C275.075,19.1833333 274.066667,18.825 272.75,18.825 C271.95,18.825 271.220833,18.9791667 270.5625,19.2875 C269.904167,19.5958333 269.3,20.0333333 268.75,20.6 L268.75,20.6 L268.35,19.075 L265.75,19.075 L265.75,31 L269.075,31 Z M288.625,31 L288.625,25.2 L290.45,25.2 L293.475,31 L297.4,31 L293.55,24.6 C293.883333,24.45 294.229167,24.2541667 294.5875,24.0125 C294.945833,23.7708333 295.270833,23.4708333 295.5625,23.1125 C295.854167,22.7541667 296.095833,22.3291667 296.2875,21.8375 C296.479167,21.3458333 296.575,20.7833333 296.575,20.15 C296.575,19.4666667 296.4625,18.8291667 296.2375,18.2375 C296.0125,17.6458333 295.675,17.1291667 295.225,16.6875 C294.775,16.2458333 294.2125,15.8958333 293.5375,15.6375 C292.8625,15.3791667 292.083333,15.25 291.2,15.25 L291.2,15.25 L285.225,15.25 L285.225,31 L288.625,31 Z M289.975,22.575 L288.625,22.575 L288.625,17.85 L290.35,17.85 C291.233333,17.85 291.904167,18.0541667 292.3625,18.4625 C292.820833,18.8708333 293.05,19.45 293.05,20.2 C293.05,21.05 292.7625,21.6583333 292.1875,22.025 C291.6125,22.3916667 290.875,22.575 289.975,22.575 L289.975,22.575 Z M300.925,16.525 C301.491667,16.525 301.933333,16.3625 302.25,16.0375 C302.566667,15.7125 302.725,15.3083333 302.725,14.825 C302.725,14.3416667 302.5625,13.9375 302.2375,13.6125 C301.9125,13.2875 301.475,13.125 300.925,13.125 C300.358333,13.125 299.916667,13.2875 299.6,13.6125 C299.283333,13.9375 299.125,14.3416667 299.125,14.825 C299.125,15.3083333 299.283333,15.7125 299.6,16.0375 C299.916667,16.3625 300.358333,16.525 300.925,16.525 Z M302.575,31 L302.575,19.075 L299.25,19.075 L299.25,31 L302.575,31 Z M310.625,36.95 C311.608333,36.95 312.5,36.8416667 313.3,36.625 C314.1,36.4083333 314.783333,36.1041667 315.35,35.7125 C315.916667,35.3208333 316.354167,34.8541667 316.6625,34.3125 C316.970833,33.7708333 317.125,33.175 317.125,32.525 C317.125,31.2583333 316.729167,30.3375 315.9375,29.7625 C315.145833,29.1875 314.091667,28.9 312.775,28.9 L312.775,28.9 L310.1,28.9 C309.633333,28.9 309.308333,28.8333333 309.125,28.7 C308.941667,28.5666667 308.85,28.3666667 308.85,28.1 C308.85,27.7166667 309.058333,27.4416667 309.475,27.275 C309.791667,27.3416667 310.158333,27.375 310.575,27.375 C312.158333,27.375 313.404167,26.9875 314.3125,26.2125 C315.220833,25.4375 315.675,24.4166667 315.675,23.15 C315.675,22.75 315.604167,22.35 315.4625,21.95 C315.320833,21.55 315.141667,21.2166667 314.925,20.95 L314.925,20.95 L316.475,21.175 L317.55,21.175 L317.55,19.075 L312.45,19.075 C312.166667,18.9916667 311.858333,18.9291667 311.525,18.8875 C311.191667,18.8458333 310.883333,18.825 310.6,18.825 C309.85,18.825 309.1625,18.925 308.5375,19.125 C307.9125,19.325 307.370833,19.6125 306.9125,19.9875 C306.454167,20.3625 306.095833,20.8166667 305.8375,21.35 C305.579167,21.8833333 305.45,22.475 305.45,23.125 C305.45,23.575 305.5125,23.9833333 305.6375,24.35 C305.7625,24.7166667 305.925,25.0416667 306.125,25.325 C306.325,25.6083333 306.545833,25.8541667 306.7875,26.0625 C307.029167,26.2708333 307.275,26.4416667 307.525,26.575 C307.008333,26.8083333 306.583333,27.125 306.25,27.525 C305.916667,27.925 305.75,28.4 305.75,28.95 C305.75,29.4166667 305.866667,29.8041667 306.1,30.1125 C306.333333,30.4208333 306.566667,30.6583333 306.8,30.825 C306.15,31.0583333 305.641667,31.3791667 305.275,31.7875 C304.908333,32.1958333 304.725,32.675 304.725,33.225 C304.725,34.425 305.254167,35.3458333 306.3125,35.9875 C307.370833,36.6291667 308.808333,36.95 310.625,36.95 Z M310.575,25.075 C310.041667,25.075 309.6,24.9083333 309.25,24.575 C308.9,24.2416667 308.725,23.7416667 308.725,23.075 C308.725,22.4416667 308.895833,21.9583333 309.2375,21.625 C309.579167,21.2916667 310.025,21.125 310.575,21.125 C311.108333,21.125 311.55,21.2916667 311.9,21.625 C312.25,21.9583333 312.425,22.45 312.425,23.1 C312.425,23.75 312.254167,24.2416667 311.9125,24.575 C311.570833,24.9083333 311.125,25.075 310.575,25.075 Z M310.725,34.45 C309.641667,34.45 308.879167,34.2875 308.4375,33.9625 C307.995833,33.6375 307.775,33.2333333 307.775,32.75 C307.775,32.4166667 307.858333,32.1416667 308.025,31.925 C308.191667,31.7083333 308.4,31.5333333 308.65,31.4 L308.65,31.4 L311.9,31.4 C312.566667,31.4 313.058333,31.4916667 313.375,31.675 C313.691667,31.8583333 313.85,32.1833333 313.85,32.65 C313.85,33.1166667 313.6,33.5333333 313.1,33.9 C312.6,34.2666667 311.808333,34.45 310.725,34.45 Z M322.825,31 L322.825,22.525 C323.191667,22.175 323.604167,21.8958333 324.0625,21.6875 C324.520833,21.4791667 324.966667,21.375 325.4,21.375 C326.033333,21.375 326.516667,21.55 326.85,21.9 C327.183333,22.25 327.35,22.8333333 327.35,23.65 L327.35,23.65 L327.35,31 L330.675,31 L330.675,23.075 C330.675,22.4583333 330.591667,21.8875 330.425,21.3625 C330.258333,20.8375 330.004167,20.3875 329.6625,20.0125 C329.320833,19.6375 328.8875,19.3458333 328.3625,19.1375 C327.8375,18.9291667 327.225,18.825 326.525,18.825 C325.791667,18.825 325.1125,18.95 324.4875,19.2 C323.8625,19.45 323.308333,19.7666667 322.825,20.15 L322.825,20.15 L322.825,13.15 L319.5,13.15 L319.5,31 L322.825,31 Z M338.1,31 C338.733333,31 339.333333,30.9333333 339.9,30.8 C340.466667,30.6666667 340.891667,30.5333333 341.175,30.4 L341.175,30.4 L340.675,28.075 C340.458333,28.1916667 340.175,28.2833333 339.825,28.35 C339.475,28.4166667 339.133333,28.45 338.8,28.45 C338.366667,28.45 338.020833,28.3458333 337.7625,28.1375 C337.504167,27.9291667 337.375,27.5416667 337.375,26.975 L337.375,26.975 L337.375,21.475 L340.55,21.475 L340.55,19.075 L337.375,19.075 L337.375,15.4 L334.075,15.4 L334.075,19.075 L332.225,19.075 L332.225,21.475 L334.075,21.475 L334.075,27.55 C334.075,28.7 334.383333,29.5625 335,30.1375 C335.616667,30.7125 336.65,31 338.1,31 Z M346.15,31.275 C347.7,31.275 348.929167,30.925 349.8375,30.225 C350.745833,29.525 351.2,28.5833333 351.2,27.4 C351.2,26.5 350.933333,25.7666667 350.4,25.2 C349.866667,24.6333333 349.083333,24.2 348.05,23.9 L348.05,23.9 L347.3,23.675 C346.516667,23.4416667 345.995833,23.225 345.7375,23.025 C345.479167,22.825 345.35,22.5666667 345.35,22.25 C345.35,21.9333333 345.495833,21.6833333 345.7875,21.5 C346.079167,21.3166667 346.491667,21.225 347.025,21.225 C347.941667,21.225 348.891667,21.4583333 349.875,21.925 L349.875,21.925 L350.575,19.6 C349.458333,19.0833333 348.175,18.825 346.725,18.825 C345.258333,18.825 344.116667,19.1666667 343.3,19.85 C342.483333,20.5333333 342.075,21.4166667 342.075,22.5 C342.075,23.4166667 342.308333,24.15 342.775,24.7 C343.241667,25.25 343.975,25.6916667 344.975,26.025 L344.975,26.025 L345.75,26.25 C346.583333,26.4833333 347.15,26.6958333 347.45,26.8875 C347.75,27.0791667 347.9,27.35 347.9,27.7 C347.9,28.0333333 347.745833,28.3041667 347.4375,28.5125 C347.129167,28.7208333 346.641667,28.825 345.975,28.825 C345.425,28.825 344.883333,28.7458333 344.35,28.5875 C343.816667,28.4291667 343.308333,28.225 342.825,27.975 L342.825,27.975 L342.075,30.425 C343.208333,30.9916667 344.566667,31.275 346.15,31.275 Z M86.125,55 L86.125,49.2 L87.95,49.2 L90.975,55 L94.9,55 L91.05,48.6 C91.3833333,48.45 91.7291667,48.2541667 92.0875,48.0125 C92.4458333,47.7708333 92.7708333,47.4708333 93.0625,47.1125 C93.3541667,46.7541667 93.5958333,46.3291667 93.7875,45.8375 C93.9791667,45.3458333 94.075,44.7833333 94.075,44.15 C94.075,43.4666667 93.9625,42.8291667 93.7375,42.2375 C93.5125,41.6458333 93.175,41.1291667 92.725,40.6875 C92.275,40.2458333 91.7125,39.8958333 91.0375,39.6375 C90.3625,39.3791667 89.5833333,39.25 88.7,39.25 L88.7,39.25 L82.725,39.25 L82.725,55 L86.125,55 Z M87.475,46.575 L86.125,46.575 L86.125,41.85 L87.85,41.85 C88.7333333,41.85 89.4041667,42.0541667 89.8625,42.4625 C90.3208333,42.8708333 90.55,43.45 90.55,44.2 C90.55,45.05 90.2625,45.6583333 89.6875,46.025 C89.1125,46.3916667 88.375,46.575 87.475,46.575 L87.475,46.575 Z M102.375,55.275 C103.308333,55.275 104.116667,55.1958333 104.8,55.0375 C105.483333,54.8791667 106.05,54.6916667 106.5,54.475 L106.5,54.475 L105.9,52.15 C105.483333,52.3333333 105.020833,52.4916667 104.5125,52.625 C104.004167,52.7583333 103.416667,52.825 102.75,52.825 C101.7,52.825 100.841667,52.5916667 100.175,52.125 C99.5083333,51.6583333 99.175,50.95 99.175,50 L99.175,50 L99.175,49.9 L107.1,49.9 L107.1,48.425 C107.1,46.6583333 106.620833,45.2833333 105.6625,44.3 C104.704167,43.3166667 103.416667,42.825 101.8,42.825 C100.9,42.825 100.083333,42.9791667 99.35,43.2875 C98.6166667,43.5958333 97.9875,44.025 97.4625,44.575 C96.9375,45.125 96.5333333,45.7875 96.25,46.5625 C95.9666667,47.3375 95.825,48.2 95.825,49.15 C95.825,50.2166667 96,51.1333333 96.35,51.9 C96.7,52.6666667 97.1708333,53.3 97.7625,53.8 C98.3541667,54.3 99.0458333,54.6708333 99.8375,54.9125 C100.629167,55.1541667 101.475,55.275 102.375,55.275 Z M99.25,47.675 C99.3333333,46.9083333 99.5916667,46.3 100.025,45.85 C100.458333,45.4 101.008333,45.175 101.675,45.175 C102.041667,45.175 102.35,45.2416667 102.6,45.375 C102.85,45.5083333 103.058333,45.6875 103.225,45.9125 C103.391667,46.1375 103.5125,46.4 103.5875,46.7 C103.6625,47 103.7,47.3083333 103.7,47.625 L103.7,47.625 L99.25,47.675 Z M112.625,55.275 C114.175,55.275 115.404167,54.925 116.3125,54.225 C117.220833,53.525 117.675,52.5833333 117.675,51.4 C117.675,50.5 117.408333,49.7666667 116.875,49.2 C116.341667,48.6333333 115.558333,48.2 114.525,47.9 L114.525,47.9 L113.775,47.675 C112.991667,47.4416667 112.470833,47.225 112.2125,47.025 C111.954167,46.825 111.825,46.5666667 111.825,46.25 C111.825,45.9333333 111.970833,45.6833333 112.2625,45.5 C112.554167,45.3166667 112.966667,45.225 113.5,45.225 C114.416667,45.225 115.366667,45.4583333 116.35,45.925 L116.35,45.925 L117.05,43.6 C115.933333,43.0833333 114.65,42.825 113.2,42.825 C111.733333,42.825 110.591667,43.1666667 109.775,43.85 C108.958333,44.5333333 108.55,45.4166667 108.55,46.5 C108.55,47.4166667 108.783333,48.15 109.25,48.7 C109.716667,49.25 110.45,49.6916667 111.45,50.025 L111.45,50.025 L112.225,50.25 C113.058333,50.4833333 113.625,50.6958333 113.925,50.8875 C114.225,51.0791667 114.375,51.35 114.375,51.7 C114.375,52.0333333 114.220833,52.3041667 113.9125,52.5125 C113.604167,52.7208333 113.116667,52.825 112.45,52.825 C111.9,52.825 111.358333,52.7458333 110.825,52.5875 C110.291667,52.4291667 109.783333,52.225 109.3,51.975 L109.3,51.975 L108.55,54.425 C109.683333,54.9916667 111.041667,55.275 112.625,55.275 Z M125.15,55.275 C126.016667,55.275 126.825,55.1291667 127.575,54.8375 C128.325,54.5458333 128.979167,54.1291667 129.5375,53.5875 C130.095833,53.0458333 130.533333,52.3833333 130.85,51.6 C131.166667,50.8166667 131.325,49.9333333 131.325,48.95 C131.325,47.95 131.170833,47.0666667 130.8625,46.3 C130.554167,45.5333333 130.129167,44.8958333 129.5875,44.3875 C129.045833,43.8791667 128.404167,43.4916667 127.6625,43.225 C126.920833,42.9583333 126.116667,42.825 125.25,42.825 C124.383333,42.825 123.575,42.9666667 122.825,43.25 C122.075,43.5333333 121.420833,43.9458333 120.8625,44.4875 C120.304167,45.0291667 119.866667,45.6958333 119.55,46.4875 C119.233333,47.2791667 119.075,48.1833333 119.075,49.2 C119.075,50.1666667 119.229167,51.0291667 119.5375,51.7875 C119.845833,52.5458333 120.270833,53.1833333 120.8125,53.7 C121.354167,54.2166667 121.995833,54.6083333 122.7375,54.875 C123.479167,55.1416667 124.283333,55.275 125.15,55.275 Z M125.225,52.825 C124.875,52.825 124.5375,52.75 124.2125,52.6 C123.8875,52.45 123.595833,52.225 123.3375,51.925 C123.079167,51.625 122.875,51.2375 122.725,50.7625 C122.575,50.2875 122.5,49.725 122.5,49.075 C122.5,48.3416667 122.575,47.7333333 122.725,47.25 C122.875,46.7666667 123.075,46.3791667 123.325,46.0875 C123.575,45.7958333 123.858333,45.5875 124.175,45.4625 C124.491667,45.3375 124.825,45.275 125.175,45.275 C125.525,45.275 125.866667,45.3458333 126.2,45.4875 C126.533333,45.6291667 126.825,45.85 127.075,46.15 C127.325,46.45 127.525,46.8416667 127.675,47.325 C127.825,47.8083333 127.9,48.3916667 127.9,49.075 C127.9,49.775 127.825,50.3625 127.675,50.8375 C127.525,51.3125 127.325,51.7 127.075,52 C126.825,52.3 126.541667,52.5125 126.225,52.6375 C125.908333,52.7625 125.575,52.825 125.225,52.825 Z M137.55,55.275 C138.05,55.275 138.504167,55.225 138.9125,55.125 C139.320833,55.025 139.6875,54.8958333 140.0125,54.7375 C140.3375,54.5791667 140.620833,54.4041667 140.8625,54.2125 C141.104167,54.0208333 141.316667,53.8333333 141.5,53.65 L141.5,53.65 L141.6,53.65 L141.95,55 L144.425,55 L144.425,43.075 L141.1,43.075 L141.1,51.525 C140.85,51.8583333 140.5125,52.15 140.0875,52.4 C139.6625,52.65 139.15,52.775 138.55,52.775 C138.016667,52.775 137.579167,52.6166667 137.2375,52.3 C136.895833,51.9833333 136.725,51.4666667 136.725,50.75 L136.725,50.75 L136.725,43.075 L133.4,43.075 L133.4,51.025 C133.4,52.425 133.770833,53.4833333 134.5125,54.2 C135.254167,54.9166667 136.266667,55.275 137.55,55.275 Z M150.425,55 L150.425,48.975 C150.425,47.7416667 150.695833,46.8541667 151.2375,46.3125 C151.779167,45.7708333 152.458333,45.5 153.275,45.5 C153.658333,45.5 153.991667,45.5375 154.275,45.6125 C154.558333,45.6875 154.791667,45.775 154.975,45.875 L154.975,45.875 L155.525,43.25 C155.325,43.1333333 155.075,43.0333333 154.775,42.95 C154.475,42.8666667 154.133333,42.825 153.75,42.825 C152.816667,42.825 152.041667,43.0666667 151.425,43.55 C150.808333,44.0333333 150.358333,44.5916667 150.075,45.225 L150.075,45.225 L149.7,43.075 L147.125,43.075 L147.125,55 L150.425,55 Z M161.6,55.275 C162.35,55.275 163.041667,55.1916667 163.675,55.025 C164.308333,54.8583333 164.791667,54.6833333 165.125,54.5 L165.125,54.5 L164.5,52.2 C164.233333,52.3333333 163.895833,52.4708333 163.4875,52.6125 C163.079167,52.7541667 162.608333,52.825 162.075,52.825 C161.641667,52.825 161.216667,52.7583333 160.8,52.625 C160.383333,52.4916667 160.008333,52.275 159.675,51.975 C159.341667,51.675 159.070833,51.2791667 158.8625,50.7875 C158.654167,50.2958333 158.55,49.6916667 158.55,48.975 C158.55,47.7583333 158.870833,46.8333333 159.5125,46.2 C160.154167,45.5666667 160.991667,45.25 162.025,45.25 C162.441667,45.25 162.854167,45.3125 163.2625,45.4375 C163.670833,45.5625 164.05,45.725 164.4,45.925 L164.4,45.925 L165.1,43.625 C164.466667,43.2916667 163.8625,43.075 163.2875,42.975 C162.7125,42.875 162.166667,42.825 161.65,42.825 C160.7,42.825 159.825,42.975 159.025,43.275 C158.225,43.575 157.541667,44 156.975,44.55 C156.408333,45.1 155.966667,45.7583333 155.65,46.525 C155.333333,47.2916667 155.175,48.1416667 155.175,49.075 C155.175,50.0916667 155.341667,50.9833333 155.675,51.75 C156.008333,52.5166667 156.4625,53.1625 157.0375,53.6875 C157.6125,54.2125 158.291667,54.6083333 159.075,54.875 C159.858333,55.1416667 160.7,55.275 161.6,55.275 Z M172.3,55.275 C173.233333,55.275 174.041667,55.1958333 174.725,55.0375 C175.408333,54.8791667 175.975,54.6916667 176.425,54.475 L176.425,54.475 L175.825,52.15 C175.408333,52.3333333 174.945833,52.4916667 174.4375,52.625 C173.929167,52.7583333 173.341667,52.825 172.675,52.825 C171.625,52.825 170.766667,52.5916667 170.1,52.125 C169.433333,51.6583333 169.1,50.95 169.1,50 L169.1,50 L169.1,49.9 L177.025,49.9 L177.025,48.425 C177.025,46.6583333 176.545833,45.2833333 175.5875,44.3 C174.629167,43.3166667 173.341667,42.825 171.725,42.825 C170.825,42.825 170.008333,42.9791667 169.275,43.2875 C168.541667,43.5958333 167.9125,44.025 167.3875,44.575 C166.8625,45.125 166.458333,45.7875 166.175,46.5625 C165.891667,47.3375 165.75,48.2 165.75,49.15 C165.75,50.2166667 165.925,51.1333333 166.275,51.9 C166.625,52.6666667 167.095833,53.3 167.6875,53.8 C168.279167,54.3 168.970833,54.6708333 169.7625,54.9125 C170.554167,55.1541667 171.4,55.275 172.3,55.275 Z M169.175,47.675 C169.258333,46.9083333 169.516667,46.3 169.95,45.85 C170.383333,45.4 170.933333,45.175 171.6,45.175 C171.966667,45.175 172.275,45.2416667 172.525,45.375 C172.775,45.5083333 172.983333,45.6875 173.15,45.9125 C173.316667,46.1375 173.4375,46.4 173.5125,46.7 C173.5875,47 173.625,47.3083333 173.625,47.625 L173.625,47.625 L169.175,47.675 Z M192.175,55.275 C193.225,55.275 194.116667,55.1833333 194.85,55 C195.583333,54.8166667 196.15,54.6083333 196.55,54.375 L196.55,54.375 L195.85,51.875 C195.466667,52.1083333 195.008333,52.2916667 194.475,52.425 C193.941667,52.5583333 193.291667,52.625 192.525,52.625 C191.841667,52.625 191.204167,52.5125 190.6125,52.2875 C190.020833,52.0625 189.504167,51.725 189.0625,51.275 C188.620833,50.825 188.275,50.2541667 188.025,49.5625 C187.775,48.8708333 187.65,48.05 187.65,47.1 C187.65,46.1166667 187.779167,45.2791667 188.0375,44.5875 C188.295833,43.8958333 188.65,43.3291667 189.1,42.8875 C189.55,42.4458333 190.075,42.125 190.675,41.925 C191.275,41.725 191.916667,41.625 192.6,41.625 C193.25,41.625 193.8375,41.7041667 194.3625,41.8625 C194.8875,42.0208333 195.366667,42.2166667 195.8,42.45 L195.8,42.45 L196.575,39.925 C196.141667,39.6916667 195.579167,39.475 194.8875,39.275 C194.195833,39.075 193.316667,38.975 192.25,38.975 C191,38.975 189.866667,39.1666667 188.85,39.55 C187.833333,39.9333333 186.970833,40.4791667 186.2625,41.1875 C185.554167,41.8958333 185.004167,42.75 184.6125,43.75 C184.220833,44.75 184.025,45.8666667 184.025,47.1 C184.025,48.3666667 184.225,49.5041667 184.625,50.5125 C185.025,51.5208333 185.5875,52.3791667 186.3125,53.0875 C187.0375,53.7958333 187.9,54.3375 188.9,54.7125 C189.9,55.0875 190.991667,55.275 192.175,55.275 Z M203.975,55.275 C204.908333,55.275 205.716667,55.1958333 206.4,55.0375 C207.083333,54.8791667 207.65,54.6916667 208.1,54.475 L208.1,54.475 L207.5,52.15 C207.083333,52.3333333 206.620833,52.4916667 206.1125,52.625 C205.604167,52.7583333 205.016667,52.825 204.35,52.825 C203.3,52.825 202.441667,52.5916667 201.775,52.125 C201.108333,51.6583333 200.775,50.95 200.775,50 L200.775,50 L200.775,49.9 L208.7,49.9 L208.7,48.425 C208.7,46.6583333 208.220833,45.2833333 207.2625,44.3 C206.304167,43.3166667 205.016667,42.825 203.4,42.825 C202.5,42.825 201.683333,42.9791667 200.95,43.2875 C200.216667,43.5958333 199.5875,44.025 199.0625,44.575 C198.5375,45.125 198.133333,45.7875 197.85,46.5625 C197.566667,47.3375 197.425,48.2 197.425,49.15 C197.425,50.2166667 197.6,51.1333333 197.95,51.9 C198.3,52.6666667 198.770833,53.3 199.3625,53.8 C199.954167,54.3 200.645833,54.6708333 201.4375,54.9125 C202.229167,55.1541667 203.075,55.275 203.975,55.275 Z M200.85,47.675 C200.933333,46.9083333 201.191667,46.3 201.625,45.85 C202.058333,45.4 202.608333,45.175 203.275,45.175 C203.641667,45.175 203.95,45.2416667 204.2,45.375 C204.45,45.5083333 204.658333,45.6875 204.825,45.9125 C204.991667,46.1375 205.1125,46.4 205.1875,46.7 C205.2625,47 205.3,47.3083333 205.3,47.625 L205.3,47.625 L200.85,47.675 Z M214.075,55 L214.075,46.725 C214.458333,46.3083333 214.8875,45.9791667 215.3625,45.7375 C215.8375,45.4958333 216.291667,45.375 216.725,45.375 C217.308333,45.375 217.75,45.5541667 218.05,45.9125 C218.35,46.2708333 218.5,46.7583333 218.5,47.375 L218.5,47.375 L218.5,55 L221.825,55 L221.825,47.025 C221.825,45.6583333 221.475,44.6166667 220.775,43.9 C220.075,43.1833333 219.066667,42.825 217.75,42.825 C216.95,42.825 216.220833,42.9791667 215.5625,43.2875 C214.904167,43.5958333 214.3,44.0333333 213.75,44.6 L213.75,44.6 L213.35,43.075 L210.75,43.075 L210.75,55 L214.075,55 Z M229.1,55 C229.733333,55 230.333333,54.9333333 230.9,54.8 C231.466667,54.6666667 231.891667,54.5333333 232.175,54.4 L232.175,54.4 L231.675,52.075 C231.458333,52.1916667 231.175,52.2833333 230.825,52.35 C230.475,52.4166667 230.133333,52.45 229.8,52.45 C229.366667,52.45 229.020833,52.3458333 228.7625,52.1375 C228.504167,51.9291667 228.375,51.5416667 228.375,50.975 L228.375,50.975 L228.375,45.475 L231.55,45.475 L231.55,43.075 L228.375,43.075 L228.375,39.4 L225.075,39.4 L225.075,43.075 L223.225,43.075 L223.225,45.475 L225.075,45.475 L225.075,51.55 C225.075,52.7 225.383333,53.5625 226,54.1375 C226.616667,54.7125 227.65,55 229.1,55 Z M236.975,55 L236.975,48.975 C236.975,47.7416667 237.245833,46.8541667 237.7875,46.3125 C238.329167,45.7708333 239.008333,45.5 239.825,45.5 C240.208333,45.5 240.541667,45.5375 240.825,45.6125 C241.108333,45.6875 241.341667,45.775 241.525,45.875 L241.525,45.875 L242.075,43.25 C241.875,43.1333333 241.625,43.0333333 241.325,42.95 C241.025,42.8666667 240.683333,42.825 240.3,42.825 C239.366667,42.825 238.591667,43.0666667 237.975,43.55 C237.358333,44.0333333 236.908333,44.5916667 236.625,45.225 L236.625,45.225 L236.25,43.075 L233.675,43.075 L233.675,55 L236.975,55 Z M248.4,55.275 C249.333333,55.275 250.141667,55.1958333 250.825,55.0375 C251.508333,54.8791667 252.075,54.6916667 252.525,54.475 L252.525,54.475 L251.925,52.15 C251.508333,52.3333333 251.045833,52.4916667 250.5375,52.625 C250.029167,52.7583333 249.441667,52.825 248.775,52.825 C247.725,52.825 246.866667,52.5916667 246.2,52.125 C245.533333,51.6583333 245.2,50.95 245.2,50 L245.2,50 L245.2,49.9 L253.125,49.9 L253.125,48.425 C253.125,46.6583333 252.645833,45.2833333 251.6875,44.3 C250.729167,43.3166667 249.441667,42.825 247.825,42.825 C246.925,42.825 246.108333,42.9791667 245.375,43.2875 C244.641667,43.5958333 244.0125,44.025 243.4875,44.575 C242.9625,45.125 242.558333,45.7875 242.275,46.5625 C241.991667,47.3375 241.85,48.2 241.85,49.15 C241.85,50.2166667 242.025,51.1333333 242.375,51.9 C242.725,52.6666667 243.195833,53.3 243.7875,53.8 C244.379167,54.3 245.070833,54.6708333 245.8625,54.9125 C246.654167,55.1541667 247.5,55.275 248.4,55.275 Z M245.275,47.675 C245.358333,46.9083333 245.616667,46.3 246.05,45.85 C246.483333,45.4 247.033333,45.175 247.7,45.175 C248.066667,45.175 248.375,45.2416667 248.625,45.375 C248.875,45.5083333 249.083333,45.6875 249.25,45.9125 C249.416667,46.1375 249.5375,46.4 249.6125,46.7 C249.6875,47 249.725,47.3083333 249.725,47.625 L249.725,47.625 L245.275,47.675 Z" id="Business&amp;HumanRightsResourceCentre" fill="#152234" fill-rule="nonzero"></path>
        <g id="Group-3" transform="translate(3.000000, 5.000000)">
            <mask id="mask-2" fill="white">
                <use xlink:href="#path-1"></use>
            </mask>
            <g id="Clip-2"></g>
            <path d="M20.5322786,45.1698844 C19.0964826,41.8636832 18.252013,38.1858316 18.1471959,34.3008469 C19.9340302,35.8399748 21.9453313,37.1769249 24.1474785,38.2552063 C25.2282808,42.8973666 27.8279418,46.8596545 31.3452465,49.4364301 C27.4096624,48.5722192 23.772708,47.1074214 20.5322786,45.1698844 M7.0049442,29.8737483 C7.36092668,26.2008521 8.25286057,22.707339 9.59372793,19.4873607 C10.1188021,22.6567946 11.3063992,25.686488 13.046758,28.4257986 C12.7669162,30.0640333 12.6146348,31.7508302 12.6146348,33.4782609 C12.6146348,35.4742709 12.8153694,37.4167632 13.1861845,39.2878987 C10.5509253,36.4980436 8.45161746,33.3097794 7.0049442,29.8737483 M14.3619155,23.4357737 C12.8964543,21.2306484 11.7938974,18.8273097 11.1135754,16.307025 C12.4939963,13.7570083 14.1720582,11.4279996 16.0973301,9.37847195 C16.2061026,11.8610961 16.9081791,14.2565063 18.0759994,16.4418102 C16.5393417,18.5369269 15.2825258,20.8917033 14.3619155,23.4357737 M25.796864,24.1265477 C24.5954231,26.4912348 23.8439045,29.1671172 23.6481141,32.0174273 C21.7950275,30.9678868 20.0922447,29.7330167 18.5714084,28.342549 C19.0509959,25.5754885 19.9162311,22.9620434 21.0959175,20.5656421 C22.4437067,21.9541277 24.0248623,23.1572837 25.796864,24.1265477 M36.3784433,50.1856771 C32.7602769,47.9557752 29.9460376,44.3373877 28.52013,39.9737174 C29.5376466,40.2819394 30.580873,40.5475455 31.6527758,40.7507143 C46.301455,43.5276855 60.2114705,34.9965763 62.7211471,21.6964502 C62.8941941,20.7787217 63.0029665,19.8619842 63.0613081,18.949211 C59.3056929,30.6874147 46.3143099,37.9043684 32.6772143,35.3196643 C30.8725809,34.976755 29.1421105,34.4752748 27.4976692,33.8390094 C27.4947026,33.7180992 27.4818477,33.6001622 27.4818477,33.4782609 C27.4818477,30.646781 28.0524085,27.9679255 29.0511372,25.5497207 C29.9687809,25.8609159 30.9101568,26.1314773 31.893064,26.3187891 C42.2521543,28.2820939 52.088148,22.2494659 53.8631163,12.8442351 C53.9857324,12.1950858 54.062862,11.5459366 54.1034044,10.9007517 C51.4483684,19.2019332 42.2620427,24.3049399 32.6188727,22.4774114 C32.0315016,22.3664118 31.4579743,22.2306356 30.8943354,22.0730558 C33.6808871,17.9313847 37.9437774,15.0781013 42.8246928,14.4705769 C42.1839243,14.3912915 41.5332674,14.3466934 40.873711,14.3466934 C35.6605453,14.3466934 30.9971747,16.9105851 27.826953,20.9481942 C25.9382681,20.0859655 24.2404294,18.9601128 22.7680463,17.6360465 C26.7026416,11.624231 32.8136742,7.47066698 39.8255403,6.59951862 C38.9207515,6.48752799 38.0011301,6.42310861 37.0686538,6.42310861 C30.3376183,6.42310861 24.243396,9.43298067 19.8213024,14.3011043 C18.5585535,12.4587098 17.6616754,10.4161196 17.1899986,8.2664942 C21.7050431,3.90480603 27.3958186,0.998004994 33.6719876,0.218034855 C32.5516316,0.0782943342 31.4144653,0 30.2604888,0 C13.5490889,0 0,14.9889052 0,33.4782609 C0,51.9676165 13.5490889,66.9565217 30.2604888,66.9565217 C31.4144653,66.9565217 32.5516316,66.8782274 33.6719876,66.739478 C20.5075576,65.1032255 9.89927956,54.1271527 7.39158073,39.93903 C10.1049583,44.6624578 14.1058059,48.760522 19.0460517,51.7604834 C23.5165984,57.1518908 29.9341715,60.5334131 37.0686538,60.5334131 C38.0011301,60.5334131 38.9207515,60.4699848 39.8255403,60.3570031 C35.7960164,59.856514 32.0641334,58.2668417 28.8701794,55.8694494 C29.6157649,56.0587433 30.3672835,56.2351533 31.1346235,56.3808402 C49.2610538,59.8168713 66.4728069,49.2610111 69.5797429,32.8023528 C69.7933324,31.6665894 69.9278147,30.5318171 70,29.4029912 C65.7193106,42.7814117 51.7430428,51.4046902 36.3784433,50.1856771" id="Fill-1" fill="#152234" mask="url(#mask-2)"></path>
        </g>
    </g>
</svg>